<?xml version="1.0" encoding="utf-8"?>
<svg version="1.2" baseProfile="tiny-ps" xmlns="http://www.w3.org/2000/svg" width="1024px" height="1024px" viewBox="0 0 1024 1024" preserveAspectRatio="xMidYMid meet">
 <g fill="#278dbf">
  <path d="M718.1 708.3 c-1.9 -0.4 -2.1 -0.7 -1 -1.4 1.1 -0.7 1.1 -0.9 -0.3 -0.9 -1 0 -1.8 0.5 -1.8 1 0 0.6 -3.1 0.9 -7.7 0.8 l-7.8 -0.1 5.5 -0.8 c3.9 -0.5 2.8 -0.5 -3.8 -0.3 -6.3 0.3 -9.1 0.1 -8.7 -0.6 0.3 -0.6 1 -0.8 1.4 -0.6 0.4 0.3 1.3 0.1 2.1 -0.4 0.9 -0.5 -2.5 -0.8 -8.4 -0.6 -9.6 0.3 -24.6 -2 -23 -3.6 0.3 -0.4 -0.4 -0.4 -1.7 -0.1 -1.4 0.4 -2 0.2 -1.6 -0.4 0.5 -0.7 -0.1 -0.9 -1.5 -0.5 -1.6 0.4 -1.9 0.2 -1.3 -0.8 0.5 -0.9 0.4 -1.1 -0.4 -0.6 -1.5 1 -6.4 -0.2 -5.7 -1.3 0.3 -0.4 -0.5 -0.6 -1.8 -0.4 -1.3 0.3 -3 -0.2 -3.8 -1.1 -0.9 -0.8 -1.8 -1.3 -2 -1 -0.9 0.9 -6.8 -1.8 -6.8 -3.2 0 -0.8 -0.5 -1.4 -1.1 -1.4 -0.5 0 -0.7 0.4 -0.4 1 0.8 1.3 -1.3 0.5 -12.4 -4.7 -7.2 -3.4 -9.1 -4.7 -8 -5.5 1.1 -0.8 1 -0.8 -0.5 -0.4 -2.1 0.7 -14.6 -5.8 -14.6 -7.6 0 -0.6 -0.3 -0.9 -0.6 -0.5 -1 1 -9.4 -5.2 -9.5 -7.1 0 -1.1 -0.3 -1.2 -0.6 -0.4 -0.3 0.9 -1.2 0.7 -3.4 -0.8 -1.6 -1.2 -2.8 -2.4 -2.8 -2.8 0.3 -1.8 -0.2 -2.6 -0.9 -1.4 -0.7 0.9 -1.3 0.7 -2.8 -0.9 -1 -1.3 -1.3 -1.9 -0.6 -1.5 0.7 0.4 1.2 0.2 1.2 -0.4 0 -0.7 -0.7 -0.9 -1.6 -0.6 -1.7 0.7 -8.1 -4.1 -7.6 -5.6 0.1 -0.5 -0.2 -0.7 -0.8 -0.3 -0.5 0.3 -1.3 -0.1 -1.6 -0.9 -0.3 -0.9 -1.2 -1.6 -1.8 -1.6 -2 0 -23.8 -21.9 -23 -23.2 0.4 -0.6 0.3 -0.8 -0.3 -0.5 -1.9 1.2 -19.3 -18.7 -19.3 -22.1 0 -1.2 0.9 -2.6 1.9 -3.2 2.5 -1.3 3.4 -1.3 2.6 0 -0.9 1.4 0.8 1.3 2.3 -0.2 0.9 -0.9 1.5 -0.8 2.7 0.8 0.8 1 1.5 2.6 1.5 3.5 0 0.9 1 2.4 2.2 3.5 1.4 1.2 1.9 1.4 1.3 0.4 -0.4 -0.8 1.1 0.3 3.3 2.4 2.3 2.2 3.9 4.2 3.6 4.5 -0.3 0.3 -1 -0.1 -1.5 -0.9 -0.8 -1.2 -0.9 -1.1 -0.7 0.5 0.2 1.3 1.2 2.1 3 2.3 3.1 0.4 5 2.4 5.2 5.4 0.1 1.6 1 2.4 3.3 3 3 0.8 6 4.2 5.5 6.1 -0.1 0.5 0.2 0.6 0.8 0.2 0.5 -0.3 1 -0.2 1 0.3 0 0.5 0.9 1.3 1.9 1.8 3.4 1.5 12.2 10.5 11.5 11.6 -0.4 0.7 -0.2 0.8 0.5 0.4 1.3 -0.8 7.8 4.2 7.3 5.6 -0.1 0.5 0.2 0.7 0.7 0.4 0.5 -0.4 2.5 0.6 4.3 2.2 1.8 1.6 5.1 4.1 7.3 5.5 2.2 1.5 4 3.2 4 3.9 0 0.6 0.6 1.3 1.4 1.6 0.9 0.3 1.1 0 0.6 -0.8 -0.4 -0.7 0.4 -0.4 1.9 0.5 1.4 0.9 2.3 2.2 1.9 2.8 -0.3 0.6 -0.1 0.7 0.6 0.3 0.9 -0.6 7.4 2.5 9.1 4.3 0.9 1.1 19.5 9.9 25.7 12.2 3.5 1.3 6.3 2.9 6.3 3.6 0 0.7 1.4 1.2 3.3 1.2 3 0 24.6 5.9 22 6 -2.9 0.2 -1 2.1 2 2 2.7 0 2.9 -0.2 1.2 -0.9 -1.9 -0.8 -1.9 -0.9 0.2 -0.9 1.2 -0.1 2.4 0.3 2.8 0.8 0.3 0.6 1.3 0.9 2.3 0.9 0.9 -0.1 6.7 0.4 12.7 1 6.1 0.6 14.6 1.2 19 1.3 4.4 0.1 8.6 0.6 9.3 1.2 0.8 0.6 1.2 0.6 1.2 -0.2 0 -1.6 10.7 -1.5 11.3 0.2 0.4 0.7 0.6 0.6 0.6 -0.4 0.1 -1.3 1.8 -1.8 8.4 -2.5 4.5 -0.4 10 -0.6 12.3 -0.5 5.6 0.3 13.2 -1.7 11.3 -3.1 -1 -0.7 -0.7 -0.8 1.3 -0.5 1.5 0.2 2.6 0.1 2.4 -0.2 -0.2 -0.3 4.9 -2.5 11.5 -4.8 6.6 -2.3 11.7 -3.6 11.3 -3 -0.3 0.7 0.1 0.4 0.9 -0.5 1.4 -1.8 11.2 -6.5 10.3 -5 -0.3 0.5 0.2 0.9 1 0.9 0.8 0 1.3 -0.5 1.1 -1.1 -0.5 -1.3 12.1 -8.9 13.3 -8.1 0.5 0.3 1.2 0 1.6 -0.6 0.5 -0.8 0.3 -0.9 -0.7 -0.4 -2.5 1.4 0.3 -1.1 5 -4.4 2.4 -1.7 4.8 -2.8 5.4 -2.4 0.5 0.3 0.7 0.2 0.4 -0.4 -0.4 -0.6 1.6 -2.8 4.4 -4.9 2.8 -2.1 6.4 -5.4 8.1 -7.1 1.7 -1.8 3.5 -3 4.1 -2.6 0.6 0.3 0.7 0.2 0.4 -0.4 -0.8 -1.3 6.7 -8.6 7.8 -7.6 0.4 0.5 0.5 0.3 0.2 -0.3 -0.9 -1.5 3.2 -6.6 4.5 -5.8 0.7 0.5 0.8 0.2 0.3 -0.5 -0.4 -0.8 0.3 -2.3 1.7 -3.9 1.4 -1.5 4 -4.9 5.8 -7.7 1.9 -2.7 3.6 -5.2 3.9 -5.5 1 -0.9 3.4 -5.1 9.6 -17.3 3.4 -6.5 6.5 -11.4 7 -11 0.4 0.4 0.5 0.2 0.1 -0.5 -0.9 -1.5 1.1 -7.2 2.5 -7.2 0.5 0 0.5 -0.7 0.2 -1.7 -0.4 -1 -0.2 -1.4 0.4 -1 0.7 0.5 0.9 -0.1 0.5 -1.5 -0.4 -1.6 -0.2 -1.9 0.8 -1.3 0.8 0.5 1.1 0.4 0.7 -0.2 -0.4 -0.6 0.4 -4.6 1.7 -8.9 1.3 -4.3 2.6 -7.2 2.9 -6.4 0.3 0.8 0.4 0.2 0.1 -1.5 -0.2 -1.6 0 -4.3 0.5 -6 0.5 -1.6 1 -2.4 1 -1.7 0.1 0.6 0.5 1.2 1.1 1.2 0.6 0 0.6 -0.8 0 -2.2 -1.3 -2.8 1.2 -21 2.9 -21.6 0.6 -0.2 1.1 -0.8 1.1 -1.3 0 -0.6 -0.4 -0.8 -0.9 -0.5 -0.5 0.3 -1.2 -8 -1.5 -18.7 -0.4 -10.5 -0.8 -21.3 -0.9 -23.9 -0.1 -2.5 -0.6 -4.4 -1 -4.1 -0.5 0.3 -0.7 -0.8 -0.6 -2.3 0.2 -1.6 -0.2 -3.9 -0.9 -5.1 -1.5 -2.7 -1.6 -6 -0.2 -6.6 0.6 -0.3 0.5 -0.4 -0.2 -0.3 -0.8 0.2 -2.1 -2.5 -3.4 -7.3 -1.2 -4.2 -2.5 -8.5 -2.9 -9.6 -0.5 -1.6 -0.5 -1.7 0.4 -0.5 0.7 0.9 1.1 1.1 1.1 0.3 0 -0.7 -0.6 -1.6 -1.3 -2 -1.9 -1.1 -7.9 -15.2 -7.1 -16.5 0.4 -0.6 0.3 -0.8 -0.2 -0.5 -1.3 0.8 -6.7 -9 -5.8 -10.5 0.4 -0.6 0.3 -0.9 -0.2 -0.5 -0.9 0.5 -9.9 -12.7 -9.9 -14.5 0 -0.4 -1 -1.5 -2.3 -2.4 -1.4 -0.9 -2.1 -2.2 -1.8 -3.1 0.3 -0.8 0.2 -1.2 -0.3 -0.8 -1.3 0.7 -5.2 -4.5 -4.4 -5.8 0.3 -0.5 0.1 -0.7 -0.4 -0.4 -1.3 0.8 -10.6 -9.1 -9.7 -10.4 0.3 -0.5 0 -0.8 -0.8 -0.7 -0.7 0.2 -1.2 -0.3 -1 -1 0.1 -0.8 -0.2 -1.1 -0.8 -0.7 -1.6 1 -12.3 -8.7 -10.8 -9.8 0.8 -0.5 0.5 -0.6 -0.9 -0.2 -1.2 0.3 -2.4 0.1 -2.8 -0.6 -0.4 -0.6 -4.8 -3.8 -9.9 -7.1 -8.1 -5.3 -12.5 -8.5 -8.7 -6.3 1 0.5 1.2 0.4 0.7 -0.4 -0.4 -0.6 -1.1 -0.9 -1.6 -0.6 -1 0.6 -16.1 -6.6 -15.5 -7.5 0.2 -0.3 -0.4 -0.6 -1.3 -0.7 -3.4 -0.2 -20.5 -7 -19.1 -7.6 0.8 -0.4 0.2 -0.4 -1.3 -0.1 -1.6 0.4 -2.8 0.2 -2.8 -0.2 0 -0.5 -1 -0.9 -2.2 -1 -5.2 -0.2 -15.8 -2.9 -15.4 -3.9 0.2 -0.6 -0.6 -1.2 -1.7 -1.3 -1.7 -0.1 -1.9 0.1 -0.7 0.8 1.1 0.7 0.6 1 -1.8 1 -1.8 0 -3.1 -0.4 -2.8 -0.9 0.3 -0.4 -10.2 -0.8 -23.4 -0.7 -13.2 0.1 -23.6 -0.1 -23 -0.2 0.5 -0.2 1 -0.9 1 -1.5 -0.1 -0.7 -0.9 -0.2 -2 1.1 -1.1 1.3 -2.1 1.8 -2.5 1.2 -0.3 -0.5 -1.2 -1 -1.8 -1 -0.8 0 -0.8 0.3 0.1 0.9 1.7 1 -12 3.4 -14.4 2.4 -1 -0.4 -1.5 -0.2 -1.1 0.4 0.7 1.1 -8.9 3.7 -10.4 2.7 -0.5 -0.3 -0.9 -0.1 -0.9 0.4 0 1.5 -4.3 2.3 -5.5 1 -0.7 -0.8 -0.6 -0.9 0.2 -0.4 0.6 0.3 1.4 0.2 1.7 -0.2 0.6 -1.1 -2.1 -0.9 -4.7 0.2 -1 0.5 -1.6 1.4 -1.4 2 0.3 0.7 -2.3 2.2 -6.4 3.8 -3.8 1.4 -6.6 2.2 -6.3 1.7 0.3 -0.5 0 -0.9 -0.5 -0.9 -0.6 0 -1.1 0.7 -1.1 1.6 0 0.8 -0.4 1.2 -1 0.9 -0.5 -0.3 -1 -0.2 -1 0.3 0 1.3 -5 3.3 -6.2 2.6 -0.6 -0.4 -0.8 -0.2 -0.4 0.4 1.2 1.9 -7.2 3.7 -8.6 1.7 -0.4 -0.5 -0.6 0 -0.5 1.2 0.1 1.7 0.4 1.9 1.4 1.1 0.8 -0.6 1.5 -0.9 1.7 -0.7 0.4 0.4 -20.5 13.9 -22.9 14.8 -0.5 0.2 -1.8 1.3 -2.7 2.3 -1 1.2 -2.2 1.7 -2.9 1.2 -0.7 -0.4 -0.9 -0.3 -0.6 0.3 0.7 1.1 -5.4 6.3 -7.8 6.7 -0.8 0.1 -1.8 0.6 -2.2 1.1 -0.4 0.4 -0.2 0.5 0.5 0.1 2.8 -1.7 0.8 0.4 -4.7 4.7 -3.2 2.6 -6.2 4.3 -6.6 3.9 -0.5 -0.4 -0.5 -0.2 -0.2 0.5 0.4 0.6 -0.7 2.3 -2.5 3.8 -1.8 1.4 -4.2 3.4 -5.3 4.3 -1.1 0.9 -2.4 1.5 -3 1.3 -0.5 -0.1 -0.7 0.1 -0.2 0.5 0.4 0.4 -3 4.6 -7.6 9.3 -4.5 4.7 -9.8 10.4 -11.6 12.6 -2.6 3 -4 3.9 -6.2 3.7 -1.5 -0.1 -3.1 0.3 -3.4 0.8 -0.4 0.7 0.2 0.9 1.9 0.4 1.4 -0.3 2.6 -0.2 2.6 0.3 0 1.6 -6.6 7.4 -7.5 6.6 -0.4 -0.5 -0.5 -0.2 -0.1 0.5 1.1 1.8 -5.3 8.2 -8.3 8.2 -3.1 0 -6.1 -2.7 -5.4 -4.8 1.1 -3.2 11.5 -15.2 12.6 -14.5 0.5 0.3 0.7 0.1 0.4 -0.4 -0.9 -1.4 7.2 -10.5 8.5 -9.6 0.6 0.3 0.8 0.2 0.5 -0.4 -0.9 -1.5 18.8 -21.7 20.3 -20.8 0.8 0.5 1.1 0.4 0.7 -0.2 -1.1 -1.7 24.5 -23.9 26.3 -22.8 0.5 0.3 1.2 0 1.6 -0.6 0.4 -0.8 0.3 -0.9 -0.4 -0.5 -0.7 0.4 -1.2 0.5 -1.2 0.2 0 -1.2 10.1 -7.7 11.1 -7 0.7 0.4 0.9 0.3 0.5 -0.4 -0.8 -1.4 5 -5.5 6.5 -4.6 0.8 0.4 0.9 0.3 0.5 -0.4 -0.7 -1.2 2.3 -2.3 6.8 -2.6 1.3 0 2.2 -0.5 1.9 -0.9 -0.2 -0.4 -1.4 -0.5 -2.6 -0.2 -1.4 0.4 -1 -0.1 1.1 -1.4 1.8 -1.2 3.8 -1.8 4.4 -1.5 0.6 0.4 0.8 0.3 0.5 -0.3 -0.8 -1.3 2 -2.6 3.5 -1.6 0.7 0.3 0.8 0.1 0.4 -0.5 -0.7 -1.2 0.5 -1.6 3.3 -1.3 0.7 0.2 1 -0.3 0.6 -0.8 -0.8 -1.4 9.2 -6.2 11.3 -5.4 1 0.4 1.3 0.2 0.8 -0.5 -0.7 -1.2 0.8 -1.6 4.9 -1.3 1.5 0.2 1.7 0 0.6 -0.7 -0.9 -0.7 -0.1 -1.4 3.2 -2.5 3.4 -1.1 4.7 -1.2 5.1 -0.4 0.2 0.7 0.5 0.5 0.5 -0.4 0.1 -1.8 8.8 -5 12.1 -4.4 1.1 0.2 1.8 0 1.5 -0.4 -0.3 -0.5 2.7 -1.6 6.6 -2.5 7.7 -1.7 10.6 -2 7.4 -0.6 -1.6 0.7 -1.7 0.9 -0.3 0.9 0.9 0.1 2.1 -0.5 2.5 -1.3 0.5 -0.8 4.2 -1.8 8.8 -2.5 9.1 -1.3 44.8 -1.6 45.2 -0.4 0.2 0.5 2.2 0.7 4.6 0.6 3.1 -0.2 3.7 -0.1 2.2 0.6 -1.6 0.7 -1.7 1 -0.5 1.4 3.5 1.2 6 1.5 6 0.6 0 -0.5 -0.7 -0.9 -1.7 -0.9 -0.9 0 -1.4 -0.3 -1.1 -0.6 1.1 -1 9.8 0.8 9.1 1.9 -0.3 0.6 -0.1 0.7 0.6 0.3 1.6 -1 9.3 0.3 8.6 1.5 -0.4 0.5 0.1 0.6 0.9 0.3 0.9 -0.3 1.6 -0.1 1.6 0.5 0 0.6 1.5 1 3.3 0.9 4 -0.1 7.9 1.1 7.2 2.2 -0.3 0.5 -0.1 1.1 0.5 1.5 0.5 0.3 1 0.1 1 -0.4 0 -0.6 0.5 -1.1 1.1 -1.1 0.5 0 0.7 0.5 0.3 1.2 -0.5 0.7 -0.3 0.8 0.5 0.3 1.4 -0.8 10.1 2.2 10.1 3.6 0 0.5 0.9 0.9 2 0.9 2.3 0 15.1 6.1 14.5 7 -0.2 0.3 0.5 1.2 1.7 1.9 1.6 1 1.8 1 1.2 0 -1.2 -2 1.5 -0.6 11.1 5.6 4.8 3.1 8.9 6.5 9.2 7.5 0.3 1.1 1.4 2 2.5 2 1.2 0 1.7 0.4 1.2 1.2 -0.5 0.7 -0.3 0.8 0.5 0.4 1.6 -1 5.1 2.2 4.5 3.9 -0.3 0.7 -0.1 1.6 0.5 2 0.6 0.3 1.1 0 1.1 -0.7 0 -0.9 0.3 -0.9 1 0.2 0.5 0.8 1 1.1 1 0.6 0 -0.5 1.1 0.1 2.5 1.4 1.3 1.2 2.2 2.7 1.9 3.2 -0.3 0.5 0 0.7 0.8 0.6 0.7 -0.2 1.2 0.4 1 1.4 -0.2 1.1 0.5 1.8 2 2 1.3 0.2 2.2 0.9 2 1.6 -0.1 0.8 0.1 1.1 0.6 0.8 0.5 -0.3 2.4 1.2 4.3 3.2 5 5.4 7.6 8.7 6.2 7.8 -0.7 -0.4 -1.3 -0.2 -1.3 0.4 0 0.6 1 1.4 2.3 1.9 2.9 1.1 14.2 17.9 13.9 20.7 -0.1 1.2 0.5 2.7 1.3 3.4 0.8 0.7 1.5 0.9 1.5 0.4 0.1 -0.5 1.4 1.6 3 4.6 1.8 3.4 2.7 6.4 2.3 7.8 -0.4 1.5 -0.1 2.2 0.9 2.2 2.9 0 12.9 28.1 11 31 -0.6 1 -0.7 2.2 -0.1 3.1 0.7 1.1 0.9 1 1 -0.6 0.1 -1.7 0.2 -1.6 0.9 0.5 0.4 1.4 0.8 3.4 0.8 4.5 0 1.6 -0.2 1.5 -0.8 -0.5 -0.7 -2.3 -0.8 -2.4 -0.9 -0.3 -0.1 1.2 0.6 2.6 1.5 3.1 1.3 0.7 1.7 2.6 1.7 9.3 0.1 4.6 0.4 7.3 0.7 5.9 0.9 -3.7 2 10.1 2 25 0 14 -0.9 26.2 -1.9 25.6 -0.3 -0.2 -0.7 2.6 -0.8 6.3 -0.2 3.6 -0.9 8.9 -1.8 11.6 l-1.5 5 0.5 -4.5 0.4 -4.5 -1.3 3.9 c-0.7 2.2 -2.1 4.2 -3.1 4.6 -1.2 0.4 -1.5 0.9 -0.8 1.3 0.7 0.4 1.4 0.3 1.8 -0.3 0.9 -1.4 2.5 -0.2 2.5 1.8 0 1.5 -0.2 1.5 -1 0.2 -0.6 -1 -1 -1.1 -1 -0.2 0 0.6 -0.8 1.2 -1.7 1.3 -1.2 0 -1.3 0.2 -0.5 0.6 1 0.4 0.9 0.9 -0.5 1.9 -1.7 1.3 -1.7 1.4 0.1 0.7 1.4 -0.5 1.7 -0.3 1.1 0.7 -0.5 0.9 -0.4 1.1 0.3 0.6 0.7 -0.4 1.2 -1.4 1.2 -2.3 0 -0.9 0.3 -1.4 0.6 -1.1 0.3 0.3 0 2.5 -0.7 4.7 -0.7 2.3 -1.5 3.7 -1.8 3.2 -0.4 -0.5 -0.7 0.7 -0.8 2.7 0 2 -1 5.7 -2.2 8.2 -1.2 2.5 -1.8 3.4 -1.5 2 0.4 -1.9 0.3 -2.1 -0.5 -1 -0.6 0.8 -0.8 2.5 -0.4 3.8 0.4 1.8 0.1 2.4 -1.6 2.9 -1.1 0.3 -2.1 1.3 -2.1 2.2 0 1.4 0.2 1.4 1 0.1 1.9 -2.9 1 0.1 -1.6 5.3 -5.2 10.4 -11.7 21.6 -12.4 21.2 -0.4 -0.2 -0.7 0.1 -0.7 0.8 0 0.7 -0.8 2.5 -1.8 4 -1.5 2.3 -2 2.5 -3.4 1.5 -1.4 -1.1 -1.4 -1.1 -0.3 0.4 1.2 1.4 1 2.1 -0.9 4.7 -2.5 3.4 -3.4 4 -2.5 1.5 0.3 -0.9 0.2 -1.2 -0.5 -0.9 -0.6 0.4 -0.8 1.3 -0.5 2.1 1.5 3.9 -36.3 39.7 -39.8 37.7 -0.6 -0.3 -0.8 -0.3 -0.4 0.2 0.4 0.4 0 1.4 -1 2.1 -2.1 1.7 -3.6 1.8 -2.6 0.2 0.4 -0.7 0.3 -0.8 -0.5 -0.4 -0.6 0.4 -0.9 1.1 -0.6 1.6 0.7 1.2 -6.2 5.3 -7.6 4.4 -0.8 -0.4 -0.9 -0.3 -0.5 0.4 0.8 1.4 -13 8.6 -14.6 7.6 -0.6 -0.4 -0.8 -0.3 -0.5 0.3 0.9 1.4 -1.7 2.4 -4 1.7 -1.3 -0.4 -1.5 -0.3 -0.5 0.4 1 0.6 -1.5 2 -8.6 4.6 -8 3 -10.4 3.6 -12 2.7 -1.5 -0.8 -2.3 -0.7 -3.2 0.3 -0.9 1.2 -0.7 1.3 0.9 0.9 1.2 -0.3 2.1 -0.3 2.1 0 0 0.8 -20.2 5.5 -29.3 6.8 -5.5 0.8 -8.1 0.8 -9 0.1 -1.3 -1.1 -10.4 -0.8 -11.6 0.4 -0.3 0.3 1.8 0.4 4.7 0.3 2.8 -0.2 5.2 -0.1 5.2 0.4 0 0.4 -3.6 0.7 -7.9 0.7 -4.4 0 -8.5 0.2 -9.3 0.4 -0.7 0.2 -2.4 0.1 -3.7 -0.1z m28.1 -3.5 c-0.8 -0.8 -1.8 -0.8 -3.4 -0.1 -2.1 0.9 -2 1 1.1 1.1 2.5 0 3.1 -0.2 2.3 -1z m-28.2 -5.4 c0 -0.2 -1.5 -0.4 -3.2 -0.3 -2.7 0 -2.9 0.2 -1.3 0.8 1.8 0.8 4.5 0.4 4.5 -0.5z m132.3 -41.8 c0.3 -0.8 -0.2 -1.6 -1.4 -1.9 -1.5 -0.4 -1.8 -0.2 -1 0.7 0.6 0.7 0.8 1.6 0.4 1.9 -0.3 0.4 -0.2 0.7 0.4 0.7 0.6 0 1.3 -0.6 1.6 -1.4z m43.1 -57.5 c-0.6 -0.6 -1.1 0.1 -1.8 2.9 l-0.7 2.5 1.5 -2.5 c0.8 -1.4 1.2 -2.7 1 -2.9z m13.3 -90.8 c-0.3 -1 -0.5 -0.2 -0.5 1.7 0 1.9 0.2 2.7 0.5 1.8 0.2 -1 0.2 -2.6 0 -3.5z m7.3 -10 c0 -2.9 -1.2 -2.4 -1.7 0.7 -0.2 1.1 0.2 2 0.7 2 0.6 0 1 -1.2 1 -2.7z m-8 -46 c0 -0.5 -0.5 -1.5 -1 -2.3 -0.8 -1.2 -1 -1.1 -1 0.8 0 1.2 0.5 2.2 1 2.2 0.6 0 1 -0.3 1 -0.7z m-313 -77.3 c-0.8 -0.5 -1.6 -1.4 -1.6 -2 -0.3 -2.3 -0.5 -2.4 -1.3 -1.1 -0.6 1 -0.3 2 1.2 3.2 1.2 0.9 2.4 1.5 2.7 1.3 0.2 -0.3 -0.2 -0.9 -1 -1.4z m155.5 -46.9 c-0.6 -1.1 -4.5 -1 -4.5 0.1 0 0.4 1.2 0.8 2.6 0.8 1.4 0 2.3 -0.4 1.9 -0.9z m-31.7 -0.8 c-1 -0.2 -2.8 -0.2 -4 0 -1.3 0.2 -0.5 0.4 1.7 0.4 2.2 0.1 3.2 -0.1 2.3 -0.4z m9.5 0 c-1.3 -0.2 -3.5 -0.2 -5 0 -1.6 0.2 -0.5 0.4 2.2 0.4 2.8 0 4 -0.2 2.8 -0.4z m12 0 c-1.8 -0.2 -4.8 -0.2 -6.5 0 -1.8 0.2 -0.4 0.4 3.2 0.4 3.6 0 5 -0.2 3.3 -0.4z"/>
  <path d="M295.3 707.3 c2.6 -0.2 6.7 -0.2 9 0 2.3 0.2 0.2 0.3 -4.8 0.3 -4.9 0 -6.8 -0.1 -4.2 -0.3z"/>
  <path d="M287.5 705.9 c-0.5 -0.8 -0.4 -1 0.3 -0.5 0.7 0.4 1.2 0.3 1.2 -0.1 0 -0.5 -2 -0.9 -4.5 -0.9 -2.5 0 -4.5 0.4 -4.5 0.8 0 1.1 -4 1 -12 -0.3 -3.8 -0.7 -6.7 -1.5 -6.5 -1.9 0.3 -0.5 -0.4 -0.6 -1.5 -0.3 -1.1 0.3 -2.8 0.2 -3.7 -0.2 -1 -0.4 -3.1 -0.9 -4.7 -1.1 -1.6 -0.2 -3.5 -1.2 -4.3 -2.2 -0.8 -0.9 -1.2 -1.1 -0.8 -0.4 0.3 0.6 0.4 1.2 0.1 1.2 -1.1 0 -15.1 -5.3 -15.6 -5.9 -0.3 -0.3 -1.2 -0.7 -2 -0.9 -4.2 -0.7 -9.9 -3.5 -9.4 -4.4 0.4 -0.7 0.2 -0.8 -0.4 -0.4 -1.6 1 -15.4 -6.3 -14.5 -7.7 0.4 -0.6 0 -0.8 -0.9 -0.5 -1.6 0.6 -10.2 -4.4 -9.3 -5.4 0.3 -0.3 -0.3 -1.1 -1.2 -1.9 -1.6 -1.3 -1.7 -1.2 -0.4 0.4 2 2.5 0.5 2.1 -3.7 -1 -5.2 -4 -6.2 -5 -5.4 -5.8 0.4 -0.4 0.2 -0.5 -0.4 -0.3 -1.6 0.4 -7.6 -4.1 -6.9 -5.2 0.6 -1 -1.4 -2.4 -3.5 -2.5 -0.8 0 -1.4 -0.6 -1.2 -1.3 0.1 -0.8 -0.1 -1.1 -0.6 -0.8 -1.2 0.7 -8.4 -6.8 -7.5 -7.9 0.5 -0.4 0.3 -0.5 -0.4 -0.1 -1.3 0.7 -8 -7 -7.5 -8.6 0.1 -0.5 -0.2 -0.7 -0.7 -0.4 -1.4 0.9 -14.9 -17.4 -21.4 -29 -6.2 -10.9 -9.4 -17.9 -7.8 -16.9 1.4 0.8 1.4 -0.5 0.1 -2.5 -0.9 -1.3 -1 -1.3 -1 0 -0.1 1.2 -0.3 1.1 -1.1 -0.3 -0.6 -1 -0.8 -2.5 -0.5 -3.3 0.3 -0.8 0.2 -1.3 -0.3 -1 -2 1.3 -10.7 -27.7 -9.6 -31.7 0.4 -1.5 0.3 -1.8 -0.3 -0.9 -0.9 1.4 -2.3 -5.6 -4.2 -21.8 -2 -16.6 0.9 -58.7 4.1 -59.8 0.5 -0.2 0.6 -0.8 0.3 -1.4 -0.9 -1.4 0.5 -9.8 1.6 -9.8 0.5 0 0.7 0.8 0.4 1.8 -0.5 1.4 -0.4 1.4 0.4 0.2 0.7 -0.9 0.8 -1.8 0.1 -2.6 -1.2 -1.4 2.7 -15.4 4.3 -15.4 0.5 0 0.6 -0.5 0.3 -1.1 -0.8 -1.3 3.3 -11.1 5 -12.1 0.7 -0.5 1.1 -1.7 0.8 -2.7 -0.3 -1.3 0.4 -2.9 2.2 -4.6 1.6 -1.4 2.3 -2.5 1.7 -2.5 -0.6 0 -0.9 -0.7 -0.6 -1.5 0.4 -0.8 1 -1.3 1.4 -1 0.5 0.3 1.2 0 1.6 -0.6 0.4 -0.8 0.3 -0.9 -0.4 -0.5 -1.6 1 -1.5 -0.5 0.2 -2.6 0.7 -1 1.7 -1.4 2.1 -1 0.5 0.4 0.5 0.1 0.1 -0.5 -0.9 -1.6 2.4 -7.4 3.7 -6.6 0.6 0.3 0.7 0.2 0.4 -0.4 -1.2 -1.9 13.7 -22.1 15.7 -21.5 0.6 0.2 0.8 0 0.4 -0.4 -1 -0.9 1.2 -3.5 2.3 -2.8 0.5 0.3 0.8 0.2 0.7 -0.3 -0.4 -1.4 3.3 -6.3 4.8 -6.3 0.8 0 1.4 -0.3 1.4 -0.8 0 -1.4 8.2 -9.2 9.1 -8.6 0.5 0.3 0.8 0.1 0.7 -0.5 -0.4 -1.5 14.4 -13.2 15.9 -12.6 0.7 0.2 1.2 -0.1 1 -0.8 -0.1 -0.7 0.7 -1.1 2.1 -1 1.2 0.2 2.2 -0.2 2.2 -0.8 0 -0.5 -0.6 -0.7 -1.2 -0.4 -0.7 0.4 -0.2 -0.2 1.2 -1.3 3.5 -2.9 18 -10.5 18 -9.5 0 0.4 0.4 0.3 0.8 -0.3 1.4 -2.2 9.3 -5.5 11.5 -4.9 1.6 0.5 1.8 0.4 0.8 -0.3 -1.1 -0.8 1.6 -2 9.9 -4.6 11.7 -3.7 15.9 -4.5 13 -2.5 -1.1 0.7 -0.6 0.8 2 0.3 5 -0.9 7.4 -2.5 3 -1.9 -1.9 0.3 -0.1 -0.4 4 -1.5 8 -2 14.4 -2.7 10.5 -1 -1.6 0.7 -1.7 0.9 -0.3 0.9 0.9 0.1 2.4 -0.7 3.3 -1.6 2.6 -2.6 35.3 -3.1 51.3 -0.9 12 1.7 23.4 4.3 19.7 4.5 -3 0.2 0.3 2.1 3.5 2 2.3 0 2.3 -0.1 0.5 -0.9 -3.1 -1.3 -0.5 -1.1 4.3 0.3 2.3 0.7 3.9 1.6 3.5 2.1 -0.4 0.4 0 0.4 0.9 0.1 2.1 -0.8 10.8 2.2 12.5 4.3 0.6 0.8 1.7 1.1 2.4 0.6 0.8 -0.5 1 -0.3 0.4 0.6 -0.6 1 -0.4 1.2 0.8 0.7 2.1 -0.8 8.3 1.3 6.7 2.3 -0.8 0.5 -0.7 0.9 0.4 1.3 0.9 0.4 1.6 0.2 1.6 -0.3 0 -1 7.8 2.2 8.9 3.6 0.3 0.5 1.3 1 2.2 1.2 1.8 0.3 12.9 6.1 12.9 6.8 0 0.3 -1 0 -2.2 -0.6 -2.2 -1.1 -2.2 -1 -0.4 0.4 1 0.9 2.3 1.3 2.7 1 1.2 -0.7 13 6.7 12.3 7.7 -0.3 0.5 0.3 0.9 1.3 0.9 1 0 3.4 1.4 5.3 3.1 1.9 1.7 3 2.8 2.4 2.5 -0.7 -0.3 -1.4 0.3 -1.7 1.5 -0.5 1.9 -0.4 1.9 1.7 0.6 2.1 -1.4 2.5 -1.2 6.4 2 3.4 2.8 4 3.8 3.1 4.9 -0.7 0.9 -0.8 1.4 -0.1 1.4 0.6 0 1.2 -0.6 1.5 -1.2 0.3 -1 1 -0.8 2.5 0.6 1.2 1 1.9 2.3 1.5 2.9 -0.3 0.6 -0.1 0.7 0.5 0.3 1.3 -0.8 8.4 5.2 7.7 6.4 -0.3 0.5 0 1.2 0.6 1.6 0.8 0.5 0.9 0.3 0.4 -0.6 -0.5 -0.8 -0.3 -1.1 0.6 -0.8 0.8 0.3 1.2 1.2 1.1 1.9 -0.2 0.8 0 1.1 0.4 0.6 1 -0.9 8.3 6.1 8 7.7 -0.2 0.6 -0.1 0.7 0.2 0.3 0.2 -0.5 2.2 0.8 4.3 2.9 2.1 2 3.5 4.2 3.2 4.7 -0.3 0.6 -0.1 0.7 0.5 0.4 1.3 -0.9 10.4 9.2 9.5 10.6 -0.3 0.5 -0.1 0.7 0.5 0.3 1 -0.6 10.2 9.2 10.2 11 0 0.5 0.9 1.5 2.1 2.2 1.2 0.8 1.8 1.9 1.5 2.8 -0.3 0.8 0.1 1.4 1 1.4 0.8 0 2 1.1 2.6 2.5 0.9 2.1 0.8 2.8 -0.7 4.5 -1 1.1 -2.8 2 -4 2 -2.5 0 -4.9 -2.2 -3.7 -3.5 0.4 -0.5 0.2 -0.5 -0.4 -0.2 -0.7 0.4 -2.8 -1.3 -4.9 -3.8 -2.7 -3.4 -3.5 -5.1 -3 -6.8 0.5 -1.8 0.4 -1.9 -0.5 -0.7 -0.9 1.3 -1.6 0.9 -4.5 -2.4 -1.9 -2.1 -3.2 -4.3 -2.8 -4.9 0.3 -0.6 0.1 -0.7 -0.4 -0.4 -1.3 0.8 -3.6 -1.7 -2.5 -2.8 0.4 -0.5 0.2 -0.5 -0.4 -0.2 -1 0.6 -6.7 -5.4 -6.1 -6.4 0.1 -0.2 0 -0.3 -0.2 -0.2 -0.8 0.5 -17.6 -16 -17.3 -16.9 0.1 -0.5 -0.2 -0.7 -0.6 -0.4 -1.2 0.7 -4.4 -2.8 -3.5 -3.9 0.5 -0.4 0.3 -0.5 -0.3 -0.2 -1.5 0.9 -11.6 -7.2 -10.7 -8.5 0.3 -0.6 0.2 -0.8 -0.4 -0.5 -1.2 0.8 -5.5 -2.1 -4.8 -3.3 0.3 -0.5 0 -1.2 -0.6 -1.6 -0.8 -0.4 -0.9 -0.3 -0.5 0.4 1.2 1.9 -0.3 1.4 -4 -1.4 -1.8 -1.4 -3.1 -3.1 -2.7 -3.7 0.3 -0.6 0.1 -0.7 -0.6 -0.3 -1.4 0.9 -9.4 -4.8 -8.3 -5.9 0.4 -0.5 0.2 -0.5 -0.4 -0.2 -1.2 0.7 -11.4 -4.8 -14.9 -8 -1.1 -1 -2.3 -1.7 -2.7 -1.6 -1.3 0.5 -14.7 -6.4 -14 -7.1 0.3 -0.4 -0.1 -0.4 -1.1 0 -1 0.3 -1.7 0.1 -1.7 -0.5 0 -0.6 -0.3 -1 -0.7 -0.9 -1.7 0.4 -12.3 -3.4 -11.8 -4.2 0.3 -0.4 -0.5 -0.6 -1.7 -0.2 -1.3 0.3 -1.9 0.1 -1.5 -0.5 0.9 -1.4 -3.9 -3.2 -8.1 -3.1 -1.9 0.1 -3.8 -0.5 -4.3 -1.3 -0.7 -1.2 -0.9 -1.2 -0.9 0 0 1.1 -0.4 1 -1.6 -0.5 -0.8 -1 -1.3 -1.3 -0.9 -0.6 0.8 1.5 0.3 1.5 -7.1 0.1 -3.2 -0.7 -6.6 -1.8 -7.5 -2.5 -0.8 -0.8 -2.5 -1.4 -3.7 -1.4 -1.2 0 -2.2 -0.6 -2.2 -1.2 0 -0.9 -0.3 -0.8 -0.9 0.2 -0.8 1.1 -4.7 1.4 -21.5 1.5 -13.9 0.1 -20.6 -0.2 -20.6 -0.9 0 -0.6 -0.7 -0.3 -1.4 0.7 -1 1.3 -3 1.8 -7.9 2 -3.6 0.1 -6.3 0.6 -6 1.1 0.3 0.5 -0.8 0.7 -2.5 0.4 -1.7 -0.2 -2.9 -0.1 -2.7 0.2 0.5 0.9 -9.4 3.2 -10.6 2.4 -0.5 -0.3 -0.9 0 -0.9 0.5 0 0.6 -0.8 1.1 -1.7 1.1 -1.5 0 -1.6 -0.2 -0.3 -1 1.3 -0.8 1.3 -1 -0.2 -1 -0.9 0 -2.3 0.9 -3.1 2.1 -0.8 1.1 -2.4 2.1 -3.6 2.2 -1.1 0.1 -2.1 0.4 -2.1 0.7 0 0.8 -6.2 3 -8.2 3 -0.9 0 -1.8 0.3 -2 0.8 -0.1 0.4 -3.4 2.3 -7.3 4.2 -3.8 1.9 -9.9 5.2 -13.5 7.5 -3.6 2.2 -7.2 3.9 -8.1 3.8 -0.9 -0.2 -2.2 0.3 -2.9 1.2 -0.7 0.9 -0.8 1.5 -0.2 1.5 0.6 0 1.2 -0.6 1.5 -1.2 0.2 -0.7 0.7 -1 1.1 -0.7 0.9 0.8 -8.3 7.5 -9.6 7.1 -0.5 -0.1 -0.7 0.2 -0.4 0.7 0.6 0.9 -4.4 4.7 -5.7 4.3 -0.5 -0.1 -0.6 0.2 -0.3 0.7 0.8 1.2 -2.1 3.4 -3.4 2.6 -0.6 -0.4 -0.9 -0.1 -0.8 0.7 0.2 0.8 -0.5 1.2 -1.7 1.1 -1.1 -0.1 -1.4 0 -0.7 0.3 1 0.5 1 1 -0.4 2.5 -0.9 1 -2.1 1.6 -2.6 1.3 -0.4 -0.3 -0.7 0 -0.6 0.8 0.2 0.7 -0.3 1.2 -1 1 -0.8 -0.1 -1.1 0.1 -0.8 0.6 0.3 0.5 -1.5 3.2 -3.9 6.1 -2.4 2.8 -5.4 6.5 -6.6 8.2 -1.7 2.4 -2.4 2.8 -3.1 1.7 -0.7 -1 -0.8 -0.8 -0.4 0.5 0.8 2.5 -6.4 13.3 -7.7 11.5 -0.6 -0.9 -0.7 -0.8 -0.3 0.5 0.7 2.1 -4.1 11 -5.5 10.1 -0.5 -0.3 -0.6 0.1 -0.3 0.9 0.3 0.8 -0.2 2.1 -1 3 -0.9 0.9 -1.6 2 -1.6 2.6 0 2.5 -3.3 9.1 -4.6 9.1 -0.8 0 -1.4 0.5 -1.4 1.1 0 0.5 0.5 0.7 1.1 0.3 1.2 -0.7 0.4 3 -1.3 5.6 -0.7 1.1 -0.8 0.8 -0.5 -1.2 0.2 -1.5 0 -3.3 -0.5 -4 -0.6 -0.8 -0.8 0.4 -0.5 3.6 0.6 5.9 -0.8 11.4 -3 11.8 -0.9 0.2 -1.7 1.5 -1.9 3 -0.1 1.6 -0.5 3.8 -0.9 5 -0.5 1.8 -0.4 2 0.4 0.8 0.6 -0.8 1.1 -2.4 1.1 -3.4 0 -1.1 0.3 -1.7 0.6 -1.3 1.3 1.2 -0.9 6.9 -2.9 7.7 -1.8 0.7 -1.8 0.9 -0.4 0.9 0.9 0.1 1.7 0.9 1.7 1.9 0 1.3 -0.2 1.4 -0.9 0.3 -1.4 -2.2 -2.2 0.3 -1.9 6.1 0.3 6.8 -1.2 25.7 -2.3 28.3 -0.4 1.1 -0.8 1.4 -0.8 0.8 -0.1 -0.7 -0.5 -1.3 -1 -1.3 -0.5 0 -0.7 0.9 -0.4 2 0.3 1.1 0.9 1.7 1.4 1.4 0.5 -0.3 0.9 0.4 0.9 1.5 0 1.1 -0.4 2.3 -1 2.6 -0.5 0.3 -0.9 1.8 -0.9 3.3 l0.1 2.7 0.8 -3 0.8 -3 0.1 3.3 c0 1.8 -0.3 4.1 -0.7 5 -0.5 0.9 -0.5 2.8 -0.1 4.2 0.8 2.5 0.9 2.4 0.5 -0.3 -0.2 -1.5 0.1 -3 0.5 -3.3 0.5 -0.3 0.9 2 0.9 5.1 0 3.5 -0.4 5.4 -1 5 -1.5 -0.9 -1.2 0.2 0.6 1.9 1.2 1.2 1.6 4.1 1.7 12.6 0.1 6 0.5 11 0.9 11 0.5 0 0.9 1 0.9 2.3 0.1 2 0.2 2 0.7 0.2 0.3 -1.3 1.4 1 3.3 7 1.6 5 2.6 9.8 2.3 10.9 -0.4 1.1 -0.2 1.6 0.4 1.2 1 -0.6 2.6 2.3 1.7 3.2 -0.3 0.3 -0.5 0 -0.5 -0.6 0 -0.7 -0.4 -1.2 -1 -1.2 -0.6 0 -0.5 1 0.2 2.5 0.7 1.5 1.4 2.1 1.8 1.5 1 -1.5 3.1 3.7 2.3 5.7 -0.4 1 -0.2 1.4 0.5 0.9 1.1 -0.7 2.8 2.9 2.4 5.1 -0.4 1.9 1.8 5.4 2.8 4.8 0.5 -0.3 1.9 1.4 3.1 3.7 1.2 2.4 4.4 7.6 7.2 11.7 2.7 4 4.3 7 3.6 6.6 -0.8 -0.4 -0.2 0.3 1.2 1.6 1.4 1.3 5.8 6.3 9.7 11 3.9 4.7 10.9 11.9 15.6 15.9 4.7 4.1 8.2 7.9 7.9 8.5 -0.4 0.5 -0.3 0.7 0.2 0.3 1.1 -1.1 4.5 1 4.5 2.8 0 0.8 0.6 1.4 1.3 1.2 1.7 -0.4 18.9 10.7 18 11.7 -0.5 0.4 -0.3 0.5 0.4 0.2 1.7 -1.1 4 0.2 4.6 2.5 0.4 1.5 1.1 1.9 2.7 1.5 1.2 -0.3 5.7 1.1 11.3 3.5 8.7 3.8 27.3 9.8 30.4 9.8 0.8 0 1.2 0.4 0.9 0.9 -0.3 0.4 0.7 0.6 2.2 0.4 1.8 -0.3 2.3 -0.2 1.4 0.5 -0.8 0.6 0.9 0.9 5 1 3.5 0.1 10.4 0.6 15.3 1.1 11.5 1.3 26.5 1.8 26.5 0.9 0 -0.9 18.5 -2.4 25.3 -2 4.3 0.3 5.7 0.1 5.7 -1 0 -1.7 20.2 -7.4 24.8 -7 1.7 0.2 3.2 -0.1 3.2 -0.6 0 -0.6 -1 -0.8 -2.2 -0.6 -1.3 0.3 1.1 -0.9 5.2 -2.6 4.2 -1.7 7.6 -2.6 7.8 -2 0.2 0.5 0.8 1 1.4 1 0.6 0 0.8 -0.7 0.4 -1.5 -0.6 -1.6 -0.3 -1.7 5.2 -1.8 3 -0.1 4.8 -1.7 2 -1.7 -0.7 0 0.5 -1.2 2.7 -2.5 2.2 -1.4 4.6 -2.3 5.3 -2 0.7 0.3 1.1 0.1 0.8 -0.4 -0.7 -1.1 2.2 -2.3 3.6 -1.4 0.6 0.3 0.8 0.1 0.5 -0.4 -0.8 -1.2 2 -2.7 4.2 -2.4 0.7 0.1 1.1 -0.2 0.8 -0.7 -0.3 -0.4 2 -2.4 5.1 -4.2 3.1 -1.9 7.4 -4.7 9.6 -6.2 2.1 -1.5 4.3 -2.5 4.9 -2.1 0.5 0.3 0.7 0.2 0.4 -0.3 -0.3 -0.6 0.3 -1.5 1.3 -2.2 1.7 -1 1.8 -0.9 1.4 0.6 -0.4 0.9 0.4 0.2 1.5 -1.6 1.4 -2.2 2.7 -3.2 3.7 -2.8 0.8 0.3 1.3 0.2 0.9 -0.3 -0.3 -0.5 2.5 -3.3 6.2 -6.2 3.8 -2.9 8.5 -6.8 10.6 -8.6 2.1 -1.9 4.3 -3.1 4.9 -2.7 0.6 0.4 0.8 0.3 0.4 -0.4 -0.8 -1.3 6.2 -7.2 8.6 -7.2 1 0 1.8 -0.5 1.8 -1.1 0 -0.5 -0.6 -0.7 -1.2 -0.3 -0.7 0.4 0 -0.7 1.6 -2.4 1.6 -1.8 3.1 -3 3.3 -2.8 0.2 0.2 5.9 -5.3 12.6 -12.3 6.7 -6.9 12.7 -12.9 13.3 -13.4 0.7 -0.4 2.7 -0.5 4.6 -0.3 2.6 0.3 3.3 0.8 3.2 2.4 0 1.2 0.3 1.9 0.8 1.6 1.3 -0.8 0.9 1 -0.8 3.4 -0.8 1.2 -2 1.9 -2.6 1.6 -0.6 -0.4 -0.8 -0.2 -0.5 0.3 0.7 1 -1 3 -2.5 3.2 -0.5 0.1 -0.7 0.3 -0.5 0.5 0.5 0.9 -3.7 4.5 -4.7 3.9 -0.6 -0.3 -0.8 -0.3 -0.4 0.2 1.1 1.1 -1.2 3.6 -2.5 2.8 -0.5 -0.3 -0.7 -0.2 -0.4 0.4 0.8 1.3 -3.7 5.6 -4.8 4.6 -0.4 -0.5 -0.5 -0.3 -0.2 0.3 0.8 1.4 -13.4 14.4 -16 14.9 -1 0.1 -1.7 0.7 -1.6 1.3 0.1 0.6 -2.6 3.4 -6 6.4 -9.3 8.1 -14.7 12.1 -14.7 11 0 -0.6 0.6 -1.3 1.3 -1.5 0.6 -0.3 0.1 -0.6 -1.2 -0.6 -1.9 -0.1 -2.2 0.3 -1.8 1.9 0.4 1.5 -0.5 2.8 -3.1 5 -2 1.7 -4 3 -4.4 3 -0.4 0 -1.9 1.1 -3.4 2.5 -1.5 1.4 -3 2.3 -3.3 2 -0.3 -0.4 0.1 -1 0.9 -1.5 1.2 -0.7 1 -0.9 -0.6 -0.8 -1.4 0.2 -2.1 0.9 -2 2.3 0.1 1.3 -0.5 2 -1.6 1.9 -1 -0.1 -1.6 0.2 -1.5 0.6 0.4 1.5 -8.3 7 -11 7 -2 0 -2.4 0.3 -1.4 0.9 1.1 0.7 0.7 1.2 -1.5 2.4 -1.6 0.8 -3.5 1.2 -4.3 0.9 -0.8 -0.3 -1.1 0 -0.7 0.6 0.4 0.7 -1.4 2.2 -4.3 3.7 -3.7 1.8 -4.9 2.1 -4.5 1 0.4 -0.8 0.1 -1.5 -0.5 -1.5 -0.6 0 -1.2 0.5 -1.2 1 -0.1 0.6 -0.2 1.5 -0.3 2 -0.1 1 -7.9 5 -13.6 7.1 -2.4 0.9 -2.4 0.8 -0.6 -0.6 1.1 -0.8 1.5 -1.5 0.8 -1.5 -0.6 0 -1.7 0.8 -2.4 1.8 -1.7 2.4 -3.9 3.2 -6 2 -1.1 -0.5 -1.8 -0.5 -1.8 0.1 0 0.5 0.5 1.1 1.2 1.3 0.6 0.2 -3.6 1.9 -9.3 3.7 -18.1 5.7 -17.1 5.5 -18 4 -0.7 -1.1 -0.9 -1.1 -0.9 0.2 0 1.2 -1.7 1.9 -6.9 2.8 -3.8 0.6 -7.7 0.8 -8.7 0.4 -1.2 -0.4 -1.5 -0.3 -1 0.5 0.5 0.9 -0.4 1.2 -3.1 1.1 -3.8 -0.1 -3.8 -0.1 -0.8 -0.9 l3 -0.8 -3.2 -0.1 c-2.3 -0.1 -3.3 0.4 -3.3 1.4 0 2 -6.2 2 -10.2 -0.1 -1.6 -0.9 -2.7 -1.1 -2.4 -0.5 0.5 0.7 -0.3 1.1 -1.9 1.1 -1.4 0 -2.4 -0.4 -2.1 -0.9 0.3 -0.5 -0.5 -0.8 -1.8 -0.7 -1.3 0 -2.2 0.4 -1.9 0.9 0.7 1.1 -4.6 0.8 -6.9 -0.4 -1.6 -0.9 -1.9 -0.8 -1.3 0.2 0.6 0.9 0 1.1 -2.7 0.6 -2 -0.3 -4 -0.1 -4.6 0.5 -0.6 0.6 -1.2 0.6 -1.7 -0.3z m36 -0.9 c-0.3 -0.5 -1.3 -1 -2.1 -1 -0.8 0 -1.4 0.5 -1.4 1 0 0.6 0.9 1 2.1 1 1.1 0 1.7 -0.4 1.4 -1z m38.6 -7.5 c1.9 -0.8 2.7 -1.4 1.9 -1.4 -1.4 0 -7.2 2.8 -5.9 2.9 0.4 0 2.2 -0.7 4 -1.5z m-103.6 -3.5 c-0.3 -0.5 -1.8 -1 -3.3 -0.9 l-2.7 0.1 2.5 0.8 c3.5 1.1 4.2 1.1 3.5 0z m-22 -7 c-2.8 -1.2 -3.7 -1.2 -3 0 0.3 0.6 1.6 1 2.8 0.9 2.1 0 2.1 -0.1 0.2 -0.9z m-32.5 -15.9 c0 -1.1 -3.1 -2.4 -3.9 -1.6 -0.3 0.3 0.1 1 0.9 1.5 1.9 1.2 3 1.2 3 0.1z m276.7 -57.7 c0 -1.8 0 -1.8 -2.1 0.5 -1.7 1.9 -1.7 1.9 0.1 1.5 1.1 -0.3 2 -1.2 2 -2z m-361.6 -41 c-0.5 -1.6 -1 -2.1 -1 -1.2 -0.1 1.8 1 5.1 1.5 4.5 0.2 -0.1 -0.1 -1.6 -0.5 -3.3z m-1.4 -75.1 c-0.3 -1 -0.5 -0.2 -0.5 1.7 0 1.9 0.2 2.7 0.5 1.8 0.2 -1 0.2 -2.6 0 -3.5z m197.9 -168 c-0.3 -0.4 -1.7 -0.8 -2.9 -1 -1.7 -0.2 -1.9 -0.1 -0.7 0.7 1.7 1.1 4.7 1.4 3.6 0.3z m-6.8 -1 c-1 -0.2 -2.8 -0.2 -4 0 -1.3 0.2 -0.5 0.4 1.7 0.4 2.2 0.1 3.2 -0.1 2.3 -0.4z"/>
  <path d="M758.1 694.6 c0.2 -0.2 2.2 -0.6 4.4 -0.9 2.8 -0.5 3.4 -0.4 2 0.3 -1.9 0.8 -7.3 1.4 -6.4 0.6z"/>
  <path d="M700.5 649.3 c-11.2 -0.8 -21.5 -2.7 -20.3 -3.5 0.9 -0.7 0.4 -0.8 -1.4 -0.4 -3.3 0.7 -12 -1.2 -11.2 -2.5 0.3 -0.5 -0.2 -0.6 -1 -0.3 -2.2 0.8 -4.2 -0.6 -2.5 -1.7 0.9 -0.6 -0.2 -0.8 -3.1 -0.7 -5.8 0.1 -9.8 -1 -7.9 -2.4 1 -0.7 0.8 -0.8 -0.7 -0.3 -2.6 0.7 -7.4 -1.3 -7.4 -3.1 0 -0.6 -0.7 -1.5 -1.6 -1.8 -2.6 -1 -2.9 -0.7 -0.8 0.9 1 0.9 -0.8 0.3 -4.1 -1.4 -3.3 -1.6 -6.9 -3.7 -8 -4.5 l-2 -1.6 2 0.6 c2 0.6 2 0.5 0.1 -1 -1.1 -0.9 -2.9 -1.6 -4.1 -1.6 -2.6 0 -6.7 -2.8 -6 -4.1 0.3 -0.5 0 -0.6 -0.8 -0.3 -0.8 0.3 -1.8 0 -2.3 -0.7 -0.5 -0.8 -0.3 -1 0.6 -0.4 0.8 0.5 1.1 0.4 0.6 -0.3 -0.4 -0.6 -1.2 -0.9 -1.9 -0.6 -1.9 0.7 -11.3 -8.2 -9.6 -9 0.8 -0.3 0.5 -0.4 -0.6 -0.1 -1.5 0.4 -3.5 -0.9 -7.2 -4.8 -5.5 -5.6 -6.1 -6.9 -4.9 -10.6 0.7 -2 1.3 -2.3 4.4 -1.8 3.6 0.6 9.2 5.1 9.2 7.4 0 0.7 0.5 1.3 1.1 1.3 2.1 0 7.8 5.1 7.2 6.6 -0.3 0.9 0.2 1.4 1.5 1.4 2.6 0 15.4 9.4 14.4 10.5 -0.4 0.5 -0.2 0.5 0.5 0.1 1.3 -0.7 8.3 3.1 8.3 4.5 0 0.5 0.3 0.8 0.8 0.7 1.3 -0.5 10.1 3.5 9.6 4.4 -0.3 0.4 0.1 0.5 0.9 0.2 0.8 -0.3 2.4 0.4 3.5 1.6 1.1 1.2 2.6 2 3.4 1.8 0.7 -0.3 3.3 0.1 5.8 0.9 6.9 2.1 21.7 5.3 24.7 5.4 2.2 0 2.4 0.2 1 0.7 -1 0.4 6.4 0.7 16.5 0.7 10.1 0 18.9 -0.4 19.6 -0.8 0.7 -0.5 2.5 -0.7 4 -0.6 1.5 0.1 3.4 -0.1 4.2 -0.4 3.8 -1.4 10.9 -2.6 12.9 -2.2 1.4 0.2 1.9 0 1.5 -0.7 -0.5 -0.7 -0.1 -0.9 0.9 -0.5 1 0.3 1.7 0.2 1.7 -0.3 0 -1.3 7.7 -3.3 9.3 -2.4 0.6 0.4 0.9 0.4 0.5 -0.1 -1 -1.1 16.9 -9.5 19 -8.9 1.3 0.5 1.4 0.4 0.3 -0.4 -1.1 -0.8 -0.9 -1.2 1 -2.2 1.3 -0.7 5.2 -3.5 8.7 -6.2 3.4 -2.7 6.7 -4.6 7.3 -4.3 0.5 0.4 0.8 0.2 0.7 -0.3 -0.5 -1.5 15 -17.2 15.6 -15.9 0.3 0.7 0.4 0.5 0.3 -0.4 -0.3 -2.1 7.3 -13 8.6 -12.2 0.6 0.3 0.7 0.1 0.3 -0.5 -0.4 -0.7 0.8 -3.8 2.6 -6.9 1.9 -3.2 4.6 -8.5 6 -11.8 2.7 -6.1 7.8 -22.5 7.8 -25.2 0 -0.8 0.3 -1.2 0.8 -0.9 0.4 0.2 0.6 -1.3 0.4 -3.5 -0.2 -2.1 0 -3.9 0.5 -3.9 0.5 0 0.7 -1.8 0.5 -4 -0.2 -2.2 0 -4 0.5 -4 1 0 -0.2 -18.8 -1.8 -28.5 -0.7 -3.8 -1.3 -8.5 -1.3 -10.3 0 -1.8 -0.2 -2.8 -0.6 -2.2 -0.3 0.6 -1.4 -1.6 -2.4 -4.7 -1 -3.2 -2.9 -8.2 -4.2 -11.2 -1.7 -3.8 -2.1 -5.7 -1.3 -6.1 0.6 -0.4 0.2 -1 -1.1 -1.3 -1.7 -0.4 -2.1 -1.1 -1.6 -2.4 0.4 -0.9 0.4 -1.4 0 -1.1 -0.3 0.4 -2.8 -2.5 -5.3 -6.5 -6.6 -10 -16.5 -21 -26 -28.7 -5.4 -4.4 -7.6 -6.8 -7 -7.6 0.6 -0.8 0.1 -1.1 -1.8 -1.1 -1.6 0 -3.6 -0.4 -4.6 -0.8 -1.5 -0.6 -1.6 -1 -0.5 -1.7 1 -0.7 0.8 -0.8 -0.5 -0.4 -1.1 0.3 -4.6 -0.8 -8.5 -2.8 -7.2 -3.7 -16.5 -7 -22.4 -8.1 -2.1 -0.4 -3.6 -1 -3.4 -1.4 0.5 -0.8 -9.5 -1.5 -23.9 -1.5 -14.8 -0.1 -27.4 0.7 -26.9 1.5 0.2 0.4 -1.3 1 -3.4 1.4 -5.8 1.1 -20.4 6.1 -26.1 8.9 -2.8 1.5 -5.7 2.4 -6.3 2 -0.6 -0.4 -0.9 -0.3 -0.5 0.2 0.3 0.5 -1.7 2.2 -4.5 3.7 -2.7 1.5 -4.7 2.3 -4.3 1.7 0.3 -0.5 0.1 -1 -0.4 -1 -0.6 0 -1.1 0.6 -1.1 1.4 0 2.1 -5 5.2 -8.2 5 -1.8 -0.1 -2.8 0.4 -2.8 1.2 0 1.7 1.7 1.8 2.3 0.2 0.2 -0.7 0.7 -1 1.1 -0.7 0.8 0.8 -10.2 9.5 -11.5 9.1 -0.6 -0.1 -0.8 0.2 -0.4 0.7 0.6 1.1 -5.2 5.8 -6.7 5.3 -0.5 -0.1 -0.7 0.2 -0.4 0.7 0.8 1.2 -1.8 3.3 -2.9 2.3 -0.5 -0.4 -0.5 -0.2 -0.2 0.5 1.1 1.9 -4.3 5.4 -7.7 5.1 -2.3 -0.2 -3.3 -1 -4 -3.1 -0.9 -2.5 -0.5 -3.2 4.9 -8.7 3.2 -3.2 6.2 -5.7 6.7 -5.4 0.5 0.3 0.7 0.1 0.6 -0.3 -0.4 -1.2 9.3 -9.3 19.7 -16.5 12 -8.3 23.6 -14.2 37.4 -18.8 11.5 -3.9 13.2 -4.2 25.3 -4.5 7.2 -0.2 13.3 -0.7 13.7 -1 0.3 -0.4 -1.9 -0.5 -5.1 -0.3 -3.1 0.1 -5.4 0 -5.1 -0.4 0.8 -1.4 13.3 -0.9 13.1 0.4 -0.2 0.7 0.4 1.3 1.2 1.3 2.4 0.2 3.3 -0.7 1.9 -1.6 -0.9 -0.5 1.8 -0.8 6.6 -0.7 5.3 0.1 6.4 0.3 3.3 0.5 -9.1 0.7 -4.7 1.9 7.4 2 8.1 0 12.3 0.4 12.6 1.2 0.2 0.6 0.8 0.8 1.3 0.5 0.6 -0.3 4.2 0.4 8.1 1.6 4.5 1.3 6.7 2.5 5.9 2.9 -1 0.6 -0.9 1 0.4 1.5 2.6 0.9 4.2 0.7 2.5 -0.4 -0.8 -0.5 -1.2 -1 -0.7 -1 1.1 0 16.7 7.9 16.7 8.5 0 0.3 -1 0 -2.2 -0.6 -2.1 -1.1 -2.2 -1.1 -0.9 0.5 0.8 0.9 2.1 1.4 2.8 1.1 1.8 -0.6 5.5 1.3 4.8 2.5 -0.3 0.6 0 0.7 0.8 0.4 0.8 -0.3 2.9 0.9 4.6 2.6 1.8 1.6 3.7 3 4.1 3 0.4 0 1.4 0.8 2.1 1.8 1.3 1.5 1.2 1.6 -0.3 0.4 -1.5 -1.2 -1.7 -1.1 -1.5 0.5 0 1.1 0.9 1.8 2.3 1.8 1.2 0 1.9 -0.4 1.6 -1 -0.3 -0.5 0.2 -0.4 1 0.3 0.9 0.8 1.4 2 1.1 2.8 -0.3 0.9 0.2 1.4 1.4 1.4 2 0 6.3 3.9 6.3 5.7 0 0.6 0.8 1.3 1.8 1.5 0.9 0.3 4.5 4.2 8 8.7 4.8 6.4 6.2 9.1 6.2 11.7 0 2.7 0.5 3.5 2.3 3.9 3.1 0.8 6.6 7.9 6 12.1 -0.4 2.4 0 3.2 1.9 4.1 1.9 0.8 3 2.8 4.6 8.4 2.4 8 4 16.5 2.2 11.9 -0.9 -2.4 -0.9 -2.4 -0.7 0.5 0.1 1.7 0.7 2.9 1.3 2.8 1.5 -0.3 3.4 13.9 3.4 25.2 0 15.7 -6.4 47 -9.5 46.5 -0.5 -0.1 -1.1 0.4 -1.4 1.1 -0.2 0.7 0.1 0.9 0.8 0.5 1.4 -0.9 1.4 -0.3 -0.1 2.9 -0.8 1.8 -1.4 2.2 -2 1.3 -0.5 -0.8 -0.7 -0.4 -0.6 1.3 0.3 3.3 -2.1 9.1 -3.5 8.2 -0.5 -0.3 -0.7 -0.1 -0.4 0.4 0.8 1.3 -4.2 10.5 -5.3 9.8 -0.5 -0.3 -1.2 0 -1.6 0.6 -0.4 0.8 -0.3 0.9 0.4 0.5 2.4 -1.4 1 1.1 -4.2 7.9 -2.9 3.9 -5.8 6.9 -6.4 6.8 -0.6 -0.2 -0.9 0.3 -0.6 1 0.2 0.7 -2.9 4.5 -7 8.5 -5.5 5.3 -7.9 7.1 -9.3 6.6 -1.5 -0.5 -1.5 -0.4 -0.3 0.5 1.4 1 0.7 1.6 -1.3 1.2 -0.5 -0.1 -0.6 0.2 -0.3 0.7 0.8 1.3 -10.1 8.5 -11.5 7.6 -0.7 -0.4 -0.9 -0.3 -0.5 0.4 0.8 1.4 -6.2 5.7 -9 5.4 -1.3 -0.1 -2.6 0.3 -2.9 0.8 -0.3 0.6 0.2 0.8 1.2 0.5 1 -0.3 -1.5 1.1 -5.5 3 -4 2 -8.6 3.7 -10.1 3.8 -1.6 0.1 -2.7 0.5 -2.5 0.8 0.2 0.4 -0.6 0.9 -1.9 1.3 -3.3 0.9 -4.4 0.7 -2.7 -0.4 1.2 -0.8 1 -0.9 -0.7 -0.7 -1.2 0.2 -2.6 0.6 -2.9 1 -0.4 0.4 -1.5 0.7 -2.5 0.7 -0.9 0 -1.9 0.7 -2.3 1.5 -0.3 0.8 -1.3 1.5 -2.3 1.4 -1.1 0 -1.3 -0.3 -0.5 -0.6 0.6 -0.2 1.2 -0.8 1.2 -1.3 0 -0.4 -1.1 -0.3 -2.4 0.3 -1.4 0.7 -2 1.5 -1.4 1.8 0.5 0.3 -3.4 1.2 -8.7 1.8 -5.3 0.7 -9.9 1 -10.2 0.8 -0.2 -0.3 -1.8 -0.1 -3.4 0.3 -1.7 0.5 -2.9 0.5 -2.9 -0.1 0 -0.5 -0.7 -0.9 -1.6 -0.9 -0.8 0 -1.2 0.5 -0.9 1 0.6 1 -3.7 1.1 -13 0.3z m9.3 -1 c-1 -0.2 -2.6 -0.2 -3.5 0 -1 0.3 -0.2 0.5 1.7 0.5 1.9 0 2.7 -0.2 1.8 -0.5z m-80.9 -32.7 c-0.2 -0.2 -1.4 -0.9 -2.6 -1.5 -1.9 -1 -2.2 -0.9 -1.7 0.4 0.4 0.8 1.5 1.5 2.7 1.5 1.1 0 1.8 -0.2 1.6 -0.4z m223.1 -101.7 c0 -1.6 -0.4 -2.8 -0.9 -2.5 -0.8 0.5 -0.3 5.6 0.5 5.6 0.2 0 0.4 -1.4 0.4 -3.1z m-161.2 -119.5 c2.5 -0.7 3 -2.1 0.7 -2.1 -0.8 0 -1.5 0.5 -1.5 1.1 0 0.6 -0.4 0.5 -0.9 -0.2 -0.7 -1.1 -0.9 -1.1 -1.4 0.2 -0.7 1.8 -0.3 1.9 3.1 1z"/>
  <path d="M284.1 646.8 c-4 -0.7 -5 -1.3 -4 -2 1 -0.7 0.6 -0.8 -1.3 -0.4 -3.3 0.7 -8 -0.2 -7.3 -1.4 0.3 -0.5 0.1 -1.1 -0.5 -1.5 -0.5 -0.3 -1 -0.1 -1 0.4 0 0.6 -0.4 1.1 -1 1.1 -0.5 0 -0.7 -0.7 -0.4 -1.5 0.4 -1 0 -1.5 -1.1 -1.5 -0.9 0 -1.3 0.5 -1 1 0.3 0.6 0.1 1 -0.4 1 -0.6 0 -1.1 -0.4 -1.1 -1 0 -0.5 -0.6 -0.7 -1.3 -0.4 -2.1 0.8 -12.8 -3.6 -12.1 -4.8 0.4 -0.7 0.2 -0.8 -0.5 -0.4 -1.4 0.9 -5.3 -0.3 -4.6 -1.4 0.3 -0.5 0 -1.2 -0.6 -1.6 -0.8 -0.4 -0.9 -0.3 -0.5 0.4 1.1 1.7 0.2 1.5 -5.1 -1.4 -12.3 -6.8 -29.9 -20.7 -28.7 -22.6 0.4 -0.6 0.2 -0.8 -0.4 -0.4 -1 0.6 -11.4 -11 -18.1 -20.3 -3.2 -4.5 -4 -6.8 -1.9 -5.5 0.7 0.4 0.8 0.3 0.4 -0.5 -0.4 -0.6 -1.2 -0.8 -1.8 -0.5 -0.7 0.5 -0.9 0.1 -0.5 -0.9 0.3 -0.9 0.1 -1.9 -0.5 -2.3 -0.7 -0.4 -0.8 -0.3 -0.4 0.4 0.4 0.7 0.4 1.2 0.1 1.2 -0.7 0 -9.5 -18.2 -9.5 -19.6 0 -0.5 0.4 -0.3 0.9 0.5 0.5 0.8 1.1 0.9 1.5 0.3 0.3 -0.6 -0.2 -1.3 -1.3 -1.7 -2 -0.6 -4.7 -8.7 -3.5 -10.7 0.4 -0.7 0.3 -0.8 -0.4 -0.4 -0.7 0.4 -1.2 0.1 -1.2 -0.6 0 -0.7 -0.3 -2.4 -0.5 -3.8 -0.5 -2.2 -0.4 -2.3 0.5 -0.5 0.7 1.5 0.8 1 0.4 -2 -0.4 -2.2 -1.3 -4.5 -2.1 -5.2 -1 -0.8 -1.4 -2.4 -1.1 -4.7 0.2 -2 0.1 -3.7 -0.3 -3.8 -1 -0.4 -2.2 -18.8 -1.2 -18.8 0.4 0 0.6 -2.9 0.5 -6.5 -0.2 -3.9 0 -6.5 0.6 -6.5 0.6 0 0.8 -0.9 0.5 -2 -0.7 -2.5 1.7 -14.5 2.6 -13.2 0.3 0.6 0.6 -1 0.7 -3.5 0.1 -3.1 0.6 -4.8 1.7 -5.5 1 -0.5 1.7 -1.4 1.7 -2.1 0 -0.8 -0.4 -0.6 -1.1 0.3 -0.9 1.2 -1 1.2 -0.5 -0.3 0.3 -1.1 0.9 -3 1.2 -4.3 0.3 -1.3 1.1 -2.1 1.7 -1.7 0.6 0.4 0.7 0.1 0.3 -0.6 -1.9 -3.1 20.6 -40 24 -39.4 1.3 0.2 3.5 -1.8 2.9 -2.6 -0.8 -1.3 8.2 -9.4 9.6 -8.6 0.7 0.5 1 0.4 0.6 -0.2 -0.9 -1.5 9.9 -9.7 11.4 -8.7 0.7 0.4 0.9 0.3 0.6 -0.3 -0.9 -1.4 6.1 -5.6 7.5 -4.7 0.7 0.5 0.8 0.2 0.3 -0.6 -0.6 -1 -0.4 -1.2 0.9 -0.7 1 0.4 1.5 0.3 1.1 -0.3 -0.8 -1.3 10.2 -6.3 11.7 -5.4 0.6 0.4 0.8 0.3 0.5 -0.3 -0.7 -1.1 12.1 -5.5 22.8 -8 7.8 -1.8 38.1 -3 37.1 -1.5 -0.9 1.6 2 2.2 10.4 2.1 5.5 -0.1 9.7 0.6 16 2.6 12.5 4 23.1 8.6 22.3 9.8 -0.3 0.6 -0.1 0.7 0.5 0.3 1.9 -1.1 14.2 6.3 15.3 9.1 0.7 1.9 1.5 2.4 2.9 2 2.5 -0.7 10 5.2 22.7 17.7 8.6 8.5 11.4 12.3 7.8 11 -0.8 -0.4 -1.5 -0.1 -1.5 0.5 0 0.6 0.5 1.1 1.1 1.1 0.8 0 0.8 0.5 -0.1 1.5 -2.8 3.4 -6.2 1.8 -15 -7 -4.6 -4.7 -8.8 -8.5 -9.2 -8.5 -0.4 0 -0.8 -1 -0.9 -2.2 0 -1.3 -0.3 -1.7 -0.6 -1 -0.4 1 -0.8 1 -1.9 0.1 -1 -0.8 -1.1 -1.6 -0.3 -3 0.6 -1.3 0.6 -1.9 -0.1 -1.9 -0.5 0 -1 0.7 -1 1.5 0 2.2 -1.7 1.8 -3.4 -0.7 -0.9 -1.2 -1.6 -1.9 -1.6 -1.5 0 0.4 -1.1 0 -2.5 -0.9 -1.4 -0.9 -2.3 -2 -2 -2.4 0.3 -0.4 -0.3 -0.7 -1.3 -0.6 -1 0 -1.7 -0.6 -1.6 -1.5 0.1 -0.9 -0.5 -1.6 -1.2 -1.6 -0.7 0 -1.1 0.4 -0.8 0.8 0.2 0.5 -2.8 -1 -6.8 -3.1 -4 -2.2 -7.2 -4.4 -7 -5 0.1 -0.5 -0.5 -1 -1.4 -1 -0.8 0 -1.3 0.4 -1 0.8 0.7 1.2 -15.3 -5 -18.5 -7.1 -1.6 -1.1 -4.4 -1.7 -8 -1.6 -2.9 0 -13.6 -0.2 -23.6 -0.3 -10 -0.2 -18 -0.1 -17.8 0.3 0.4 0.6 -7.6 2.2 -11.5 2.4 -0.8 0 -1.7 0.2 -2 0.5 -1.2 1.3 -13.8 5 -16.7 5 -2.2 0 -3.3 0.5 -3.3 1.5 0 1.8 -3.6 3.8 -5.2 2.9 -0.7 -0.4 -0.8 -0.3 -0.4 0.4 0.8 1.4 -5 4.6 -6.6 3.6 -0.6 -0.4 -0.8 -0.3 -0.4 0.4 0.3 0.6 0.2 1.3 -0.4 1.7 -0.5 0.3 -1 -0.1 -1 -0.9 0 -0.9 -0.5 -1.6 -1.1 -1.6 -0.6 0 -0.9 0.9 -0.6 2 0.4 1.5 -0.4 2.7 -3.1 4.5 -1.9 1.3 -3.9 2.2 -4.4 1.9 -0.5 -0.3 -0.7 0 -0.6 0.8 0.2 0.7 -0.3 1.2 -1 1 -0.8 -0.1 -1.1 0.1 -0.8 0.6 0.6 1 -11.8 13.4 -12.7 12.7 -0.4 -0.3 -0.5 -0.2 -0.2 0.1 0.2 0.4 -1.5 3.2 -3.9 6.3 -2.4 3.1 -4.8 6.6 -5.5 7.9 -0.6 1.2 -1.9 2.2 -2.9 2.2 -1.1 0 -1.3 0.3 -0.5 0.8 0.8 0.5 0.5 1.8 -1.1 4.5 -1.3 2 -2.6 3.4 -3.1 2.9 -0.4 -0.4 -0.5 -0.2 -0.1 0.5 0.4 0.7 -0.4 3.8 -1.7 6.9 -1.5 3.6 -2.7 5.2 -3.1 4.3 -0.3 -0.8 -0.3 -0.4 0 0.8 0.3 1.3 0.1 3.1 -0.5 4 -0.6 1 -1.1 1.2 -1.1 0.6 0 -0.7 -0.5 -1.3 -1.1 -1.3 -0.7 0 -1 1.7 -0.8 4.3 0.4 6.2 -1 14.5 -2.7 15.1 -0.8 0.3 -1.4 1.1 -1.4 1.8 0 0.9 0.3 0.9 1.1 -0.2 0.8 -1.1 0.9 0 0.5 4 -0.3 3 -1 5.6 -1.6 5.8 -0.5 0.2 -0.9 1.8 -0.9 3.5 l0.1 3.2 0.8 -3 c0.7 -2.8 1.4 8.2 1.5 23.7 0 2.5 0.2 4.4 0.5 4.2 0.2 -0.3 1.1 2.6 2 6.3 0.9 3.7 1.9 7.9 2.3 9.3 0.6 2 0.4 1.9 -0.8 -0.5 -1.2 -2.6 -1.4 -2.7 -1.5 -0.8 0 1.2 0.9 2.8 2 3.6 1.4 1 1.8 2 1.4 3.3 -0.4 1 -0.4 1.6 0.1 1.2 0.4 -0.4 2.7 3.5 5 8.6 2.3 5.2 5.2 10.8 6.4 12.5 1.9 2.6 2.1 3.4 1 4.7 -0.7 0.8 -0.8 1.4 -0.3 1.3 2.3 -0.4 3.4 0.4 7.2 5.4 2.2 2.8 5.4 6.7 7.1 8.5 1.7 1.9 2.9 3.8 2.6 4.3 -0.4 0.5 0 0.9 0.8 0.9 1.7 0 12.3 9 11.9 10.2 -0.1 0.4 0.1 0.7 0.5 0.7 1.8 -0.3 3.6 0.1 3 0.7 -0.7 0.7 6.3 4.7 19.3 11 12.3 5.9 12.9 6.2 16.8 6.9 1.8 0.4 3 1 2.7 1.4 -0.2 0.5 0.7 0.6 2 0.3 1.8 -0.3 2.4 0 2.2 0.9 -0.2 0.8 -0.2 1.1 0 0.7 0.3 -0.5 1.6 -0.8 2.9 -0.8 1.4 0 2.3 0.4 2 0.8 -0.2 0.4 1.1 0.6 3.1 0.4 2 -0.3 3.3 0 3 0.4 -0.3 0.5 1.3 0.8 3.6 0.6 2.8 -0.2 3.7 0 2.9 0.6 -1.1 0.7 -0.9 1 0.7 1.5 1.2 0.3 2.4 0.1 2.7 -0.4 0.3 -0.5 4.3 -0.9 9 -0.9 4.7 0 8.3 0.4 8 0.8 -0.2 0.4 1.1 0.7 2.9 0.7 1.8 0 3.1 -0.4 2.8 -0.8 -0.3 -0.5 -1.4 -0.7 -2.4 -0.4 -1.1 0.3 -1.7 0.1 -1.3 -0.4 0.3 -0.5 2.2 -0.9 4.2 -0.9 2 0 6.8 -0.7 10.7 -1.5 3.8 -0.8 7.9 -1.2 9 -0.9 1.6 0.4 1.7 0.3 0.5 -0.5 -1.3 -0.9 -1.3 -1.1 0.1 -1.1 0.8 0 2.1 0.6 2.8 1.3 1 1 1.1 0.9 0.6 -0.4 -0.4 -1.2 0.5 -1.9 3.7 -2.8 2.4 -0.7 7.6 -2.8 11.7 -4.7 4 -1.9 7.8 -3.1 8.4 -2.7 0.5 0.3 0.7 0.2 0.4 -0.4 -0.5 -0.8 3 -3.1 7 -4.5 0.4 -0.2 1.8 -1.3 3.2 -2.5 1.3 -1.3 2.9 -2.3 3.5 -2.3 0.6 0 0.4 0.5 -0.4 1.1 -1.3 0.9 -1.3 1 0 0.6 0.8 -0.2 1.5 -0.8 1.5 -1.4 0 -0.5 3.4 -3.7 7.6 -7.1 4.3 -3.3 8 -6.5 8.3 -7.1 0.4 -0.6 1.3 -0.8 2 -0.5 0.8 0.3 1.7 0 2.2 -0.7 0.5 -0.8 0.3 -1 -0.7 -0.4 -0.8 0.5 -0.6 -0.1 0.5 -1.3 1 -1.2 2.1 -2 2.5 -1.9 0.3 0.1 0.6 -0.1 0.6 -0.4 0 -2.2 3 -3.8 6.8 -3.6 3.6 0.2 4.3 0.6 4.5 2.5 0.6 3.9 -2.3 7.2 -5.8 6.7 -1.6 -0.2 -3 0.1 -3 0.6 0 0.6 0.9 0.7 2.2 0.3 2 -0.6 2.1 -0.5 0.9 0.9 -0.7 0.9 -1.8 1.4 -2.4 1 -0.5 -0.3 -0.7 -0.2 -0.4 0.4 0.3 0.5 -0.9 2.5 -2.8 4.3 -1.9 1.9 -3.5 2.9 -3.5 2.3 0 -0.6 0.6 -1.4 1.3 -1.6 0.7 -0.3 0.5 -0.6 -0.5 -0.6 -1.6 -0.1 -2.4 1.1 -1.5 2.2 0.5 0.8 -2.6 3.6 -3.4 3.1 -0.5 -0.3 -0.8 0 -0.7 0.7 0.2 0.7 -1 1.6 -2.7 2 -1.6 0.4 -2.4 0.7 -1.7 0.8 0.7 0 1 0.6 0.7 1.1 -0.4 0.6 -1.1 0.8 -1.6 0.5 -0.5 -0.4 -0.9 -0.1 -0.9 0.5 0 0.6 -0.5 0.8 -1.2 0.4 -0.7 -0.4 -0.8 -0.3 -0.4 0.4 0.3 0.6 -0.3 1.6 -1.5 2.2 -1.7 1 -2 0.9 -1.4 -0.2 0.3 -0.7 -0.1 -0.4 -1 0.7 -1 1.3 -2.8 2 -5.2 2 -2 0 -3.8 0.6 -4 1.3 -0.3 0.6 0.2 1.2 1.1 1.2 0.9 0 1.6 -0.4 1.6 -0.8 0 -0.5 0.7 -0.9 1.6 -0.9 2.4 0 -0.3 1.9 -10.4 7 -7.1 3.6 -8.4 4 -9.3 2.7 -0.9 -1.3 -1 -1.2 -0.5 0.2 0.4 1.3 -0.7 2.1 -4.7 3.7 -2.9 1 -6.6 1.7 -8.2 1.5 -1.8 -0.2 -2.2 -0.1 -1 0.3 1.4 0.4 0 1.1 -5 2.4 -4.4 1.1 -7.1 1.4 -7.4 0.8 -0.1 -0.6 -0.8 -0.3 -1.5 0.6 -0.7 1.1 -3.3 1.9 -6.7 2.2 -10 1.1 -36.3 1.1 -41.8 0.1z m19.2 -7.5 c-1.3 -0.2 -3.3 -0.2 -4.5 0 -1.3 0.2 -0.3 0.4 2.2 0.4 2.5 0 3.5 -0.2 2.3 -0.4z m-44.7 -8.8 c-1.1 -0.8 -2.2 -1.2 -2.5 -0.9 -0.6 0.6 1.9 2.4 3.4 2.4 0.6 -0.1 0.1 -0.7 -0.9 -1.5z m95.4 0.6 c0 -0.4 -1.1 -0.6 -2.5 -0.3 -1.4 0.2 -2.5 0.6 -2.5 0.8 0 0.2 1.1 0.4 2.5 0.4 1.4 0 2.5 -0.4 2.5 -0.9z m-5.5 -240.1 c-2.8 -1.2 -4.7 -1.2 -4 0 0.3 0.6 1.8 1 3.3 0.9 2.4 0 2.5 -0.1 0.7 -0.9z m-39.5 -8 c1.1 -0.7 0.7 -1 -1.8 -1 -2 0 -3.1 0.4 -2.7 1 0.8 1.3 2.6 1.3 4.5 0z m-7.2 -0.7 c-1 -0.2 -2.8 -0.2 -4 0 -1.3 0.2 -0.5 0.4 1.7 0.4 2.2 0.1 3.2 -0.1 2.3 -0.4z"/>
  <path d="M342.4 566.2 c0.4 -0.6 -0.1 -0.8 -1.3 -0.5 -2.9 0.7 -15.8 -5.8 -15.3 -7.8 0.1 -0.6 -0.2 -0.8 -0.7 -0.5 -3.2 2 -15.5 -18.2 -15.6 -25.5 0 -2.1 -0.3 -3.9 -0.7 -3.9 -1.2 0 -0.9 -5.5 0.3 -6.7 0.8 -0.8 0.8 -1.3 0 -1.7 -0.6 -0.4 -1.1 -3.4 -1.1 -6.7 0 -3.3 0.4 -5.8 0.9 -5.5 0.4 0.3 0.6 -0.5 0.4 -1.7 -0.9 -4.9 7.4 -22.6 9.9 -21.1 0.7 0.5 0.8 0.3 0.3 -0.5 -1 -1.7 3.4 -6.3 5.5 -5.6 1 0.3 2.3 -0.2 3.1 -1.2 1.1 -1.5 1.1 -1.6 -0.1 -0.5 -1.9 1.7 -3.5 1.5 -2.1 -0.2 2.3 -2.7 12.6 -7 18 -7.4 3.7 -0.3 5.2 -0.1 4.7 0.6 -0.4 0.6 -1.4 0.9 -2.4 0.6 -1.3 -0.5 -1.4 -0.4 -0.3 0.4 1.6 1.1 5.3 0.4 4.5 -0.9 -0.3 -0.5 0 -0.9 0.5 -0.9 0.6 0 1.1 0.4 1.1 0.9 0 1.3 3.6 2 5.1 1 1.1 -0.7 0.9 -0.9 -0.5 -0.9 -1.1 0 -1.7 -0.3 -1.3 -0.6 0.3 -0.3 2.1 -0.3 3.9 0.1 2.9 0.7 3 0.9 1.3 1.6 -1.5 0.5 -0.9 0.7 2 0.7 4.2 -0.1 8.5 1.6 8.5 3.3 0 0.6 0.4 0.8 0.9 0.5 1.1 -0.7 6.4 4.5 9.8 9.5 1.8 2.8 2.5 5.2 2.6 9.8 l0.2 6.1 -4.2 0 c-4.4 0 -6.1 -1.9 -4.8 -5.3 0.4 -0.8 0.2 -1.8 -0.4 -2.2 -0.7 -0.4 -0.8 0.1 -0.4 1.2 0.3 1 -0.5 0.2 -1.9 -1.7 -1.6 -2.3 -2.1 -3.8 -1.4 -4.2 0.6 -0.4 0.1 -0.8 -1.1 -0.8 -1.3 0 -2.3 -0.4 -2.3 -0.8 0 -0.5 -2.4 -2.2 -5.2 -3.8 -6.4 -3.5 -13.9 -4.2 -20.4 -2 -2.5 0.8 -5 1.4 -5.7 1.2 -0.7 -0.1 -0.8 -0.1 -0.4 0.2 1 0.5 -6.4 5.8 -7.6 5.4 -0.5 -0.1 -0.6 0.1 -0.3 0.6 0.7 1.2 -2.9 6.4 -3.9 5.5 -0.4 -0.5 -0.5 -0.3 -0.1 0.4 0.9 1.6 -1.4 6.2 -2.9 5.7 -1 -0.4 -1.3 3.4 -1.3 17.1 0 16.4 0.1 17.6 1.9 18.6 1.4 0.7 1.8 1.7 1.5 3.2 -0.3 1.2 -0.3 1.6 0 0.9 0.4 -0.8 1.7 0.4 3.6 3.2 1.6 2.5 4.9 5.8 7.3 7.3 2.5 1.5 4.5 3.5 4.5 4.3 0 1.3 0.1 1.3 1 0 0.5 -0.8 1 -1 1 -0.5 0 0.7 1.5 0.9 3.7 0.7 2.6 -0.3 4 0 4.9 1.2 1.1 1.5 1.2 1.5 1.8 0 0.4 -1.1 1.5 -1.5 3.6 -1.2 1.6 0.2 2.7 0.1 2.5 -0.3 -0.3 -0.4 0.7 -1 2.1 -1.3 4.1 -1.1 11.9 -9.1 14.4 -14.9 1.3 -2.9 2.5 -4.7 2.7 -4.1 0.2 0.6 1.5 0.9 3.1 0.6 2.4 -0.5 2.5 -0.6 0.7 -1.3 -1.7 -0.6 -1.6 -0.7 0.7 -0.6 1.5 0.1 2.4 0.5 2.1 1 -0.3 0.4 0.4 1.1 1.6 1.4 1.2 0.3 2.1 1.3 2.1 2.4 0 2.5 -3.1 8.9 -4.1 8.3 -0.4 -0.2 -1.1 0.1 -1.5 0.7 -0.4 0.8 -0.3 0.9 0.4 0.5 2.5 -1.6 1 1.5 -3.5 6.8 -3.7 4.4 -5.3 5.6 -7.6 5.6 -2.1 0 -2.8 0.4 -2.4 1.4 1 2.4 -6.9 4.9 -17.2 5.4 -6.3 0.3 -9.2 0.1 -8.7 -0.6z m43.6 -28 c0 -0.7 -0.4 -1 -1 -0.7 -0.5 0.3 -1 1.6 -1 2.8 0 1.8 0.2 1.9 1 0.7 0.5 -0.8 1 -2.1 1 -2.8z m-42.7 -67.3 c-0.5 -0.5 -2.2 -0.5 -3.8 0 -3 0.9 -3 0.9 0.8 0.8 2.1 0 3.4 -0.4 3 -0.8z"/>
  <path d="M464.6 563.9 c-0.2 -1.3 -0.4 -22.9 -0.3 -47.9 l0.2 -45.5 4.3 -0.3 c2.5 -0.2 4.2 0.1 4.2 0.7 0 0.6 0.8 1.1 1.8 1.1 1.4 0 1.5 -0.2 0.2 -1 -1 -0.7 2.3 -1 10.3 -1 7.6 0 11.6 0.4 11.2 1 -0.4 0.6 0.7 1 2.7 0.9 3.1 -0.1 3.2 -0.1 0.8 -0.9 -2.4 -0.8 -2.3 -0.8 0.8 -0.9 2.3 -0.1 3.1 0.3 2.6 1 -0.5 0.8 0.1 1 1.8 0.6 3.3 -0.9 12.5 2.2 10.7 3.5 -1 0.7 -0.8 0.8 0.7 0.3 1.4 -0.3 3 0.2 4.5 1.6 1.3 1.1 1.9 1.8 1.2 1.5 -0.6 -0.4 -1.4 -0.3 -1.7 0.2 -0.2 0.4 0.7 0.9 2.2 1 4 0.3 12.2 10.7 10.6 13.4 -0.4 0.6 -0.3 0.8 0.3 0.5 1.5 -1 3.3 3.9 2.7 7.2 -0.3 1.6 -0.1 3.1 0.4 3.5 0.6 0.4 0.8 -0.3 0.6 -1.6 -0.4 -2.1 -0.3 -2 0.6 0.2 2.4 5.4 1.3 30.9 -1.2 29.4 -0.8 -0.5 -0.9 -0.1 -0.5 1 0.9 2.2 -2.2 9.8 -3.6 8.9 -0.6 -0.3 -0.7 -0.1 -0.3 0.5 0.9 1.5 -2.3 6.4 -3.7 5.5 -0.6 -0.4 -0.8 0 -0.4 1 0.9 2.5 -8.1 10 -16 13.3 -6.5 2.6 -7.7 2.8 -27 3.2 l-20.2 0.4 -0.5 -2.3z m6 0.1 c-1.6 -0.5 -3.3 -0.7 -3.8 -0.4 -0.4 0.3 -0.5 -0.2 -0.2 -1 0.3 -0.9 0.2 -1.6 -0.4 -1.6 -0.8 0 -0.9 1.6 -0.3 3.8 0.1 0.1 1.8 0.2 3.9 0.1 3.7 -0.1 3.7 -0.1 0.8 -0.9z m9.7 0.3 c-1.3 -0.2 -3.3 -0.2 -4.5 0 -1.3 0.2 -0.3 0.4 2.2 0.4 2.5 0 3.5 -0.2 2.3 -0.4z m7.5 0 c-1 -0.2 -2.6 -0.2 -3.5 0 -1 0.3 -0.2 0.5 1.7 0.5 1.9 0 2.7 -0.2 1.8 -0.5z m5.6 -9.4 c-0.3 -0.5 0.8 -0.9 2.5 -0.9 1.6 0 3.2 0.6 3.4 1.3 0.4 0.7 0.6 0.6 0.6 -0.5 0.1 -1.1 1.4 -1.8 4 -2.3 8.6 -1.4 19.4 -12.5 22.2 -22.7 1.8 -6.8 1.5 -30.1 -0.4 -27.5 -0.5 0.7 -0.7 0.3 -0.4 -1.1 0.3 -1.2 0.2 -2 -0.3 -1.7 -0.4 0.3 -1.3 -0.8 -2 -2.4 -1.2 -3 -8.7 -11.1 -10.2 -11.1 -0.5 0 -0.7 -0.4 -0.4 -0.9 0.3 -0.5 -0.2 -1.5 -1.2 -2.2 -1.5 -1.3 -1.6 -1.2 -0.3 0.4 0.7 0.9 1 1.7 0.5 1.7 -1.3 0 -4.1 -2 -2.9 -2 0.6 0 -0.1 -0.7 -1.5 -1.5 -2.7 -1.5 -11 -2 -11 -0.7 0 0.5 -0.7 0.9 -1.5 0.9 -0.8 0 -1.5 -0.3 -1.5 -0.6 0 -0.3 -3.8 -0.7 -8.4 -0.8 -6.8 -0.2 -8.5 0.1 -9 1.4 -0.3 0.8 -1.2 1.3 -1.9 1 -0.8 -0.3 -1.4 0.1 -1.4 0.9 0 0.9 0.7 1.3 1.6 0.9 1.1 -0.3 0.9 0 -0.4 1.1 -1.4 1.1 -1.6 1.8 -0.7 2.1 0.6 0.3 0.9 1 0.5 1.6 -0.4 0.7 0.1 0.6 1 -0.2 2 -1.6 2.2 -0.8 0.5 2.2 -1.4 2.8 -1.9 6.9 -0.7 6.1 0.5 -0.3 0.7 -0.9 0.4 -1.4 -0.3 -0.5 -0.1 -1.1 0.4 -1.4 0.4 -0.3 0.9 4.1 1 9.9 0.1 6 -0.3 10.6 -0.9 11 -0.5 0.3 -0.9 2.1 -0.9 3.8 l0.1 3.2 0.8 -3 0.8 -3 0.1 3.7 c0 2 -0.3 3.9 -0.8 4.3 -0.6 0.3 -0.9 2.8 -0.9 5.5 0.1 2.7 0.5 4.7 1 4.4 0.4 -0.3 0.8 0.2 0.8 1 0 1 -0.6 1.3 -1.5 1 -1.9 -0.8 -1.9 0.7 0 3.2 0.8 1 1.4 3 1.3 4.4 -0.1 2.3 -0.1 2.4 -0.5 0.3 -0.2 -1.3 -0.8 -2.3 -1.3 -2.3 -0.4 0 -0.6 0.9 -0.3 2 0.3 1.1 0 2.7 -0.7 3.5 -0.8 1 -0.9 1.5 -0.2 1.5 0.6 0 0.9 0.7 0.6 1.5 -0.7 1.8 1.2 2 2 0.3 0.3 -0.7 0.4 -0.4 0.3 0.7 -0.2 1.8 0.5 2 7.1 2.3 5.1 0.2 7.5 0.7 7.8 1.7 0.3 0.7 1.2 1.1 2 0.8 0.8 -0.3 1.1 -0.9 0.8 -1.4z m45.6 -37.4 c0 -1.4 -0.2 -2.5 -0.4 -2.5 -0.2 0 -0.6 1.1 -0.8 2.5 -0.3 1.4 -0.1 2.5 0.3 2.5 0.5 0 0.9 -1.1 0.9 -2.5z m-64.1 -7.2 c0 -2.9 -0.2 -3.3 -0.8 -1.8 -0.7 1.8 -0.4 5.5 0.5 5.5 0.2 0 0.4 -1.7 0.3 -3.7z"/>
  <path d="M501 482 l-3.5 -0.7 3.5 -0.2 c1.9 0 4.2 0.4 5 0.9 1.3 0.9 1.3 1 0 0.9 -0.8 -0.1 -3.1 -0.5 -5 -0.9z"/>
  <path d="M569 565 c7.7 -0.6 8 -0.7 3 -0.9 -3 -0.2 -6.8 -0.4 -8.5 -0.6 -1.6 -0.1 -3.4 0.3 -3.8 0.9 -0.6 0.9 -0.5 -6.4 0.3 -15.9 0.1 -0.5 -0.2 -2.5 -0.5 -4.2 -0.4 -2.1 -0.2 -3.3 0.4 -3.3 0.6 0 1.1 -0.5 1.1 -1.1 0 -0.5 -0.4 -0.8 -0.9 -0.5 -0.4 0.3 -0.8 -8.2 -0.8 -18.9 0 -13.7 0.3 -19.5 1.1 -19.5 0.7 0 0.8 -0.3 0.1 -0.8 -0.7 -0.4 -1.1 -6.2 -1 -15.2 l0 -14.5 8.8 -0.3 c5.5 -0.2 8.7 0.1 8.7 0.8 0 0.6 2 0.9 4.8 0.8 l4.7 -0.1 -4.5 -0.7 c-3.8 -0.6 -3.3 -0.7 3.5 -0.8 5.4 0 7.2 0.3 5.5 0.8 -1.8 0.6 -0.9 0.8 3.5 0.8 5.1 -0.1 5.5 -0.2 2.5 -0.8 -2.4 -0.5 0.1 -0.8 7.8 -0.9 l11.2 -0.1 0.2 3.8 c0 2 0.2 4.4 0.2 5.2 0.2 1.9 -1.3 3 -3.9 3 -1.7 0 -1.7 -0.2 -0.5 -1 1.2 -0.8 1 -1 -0.8 -1 -1.3 0 -2 0.4 -1.7 1 0.3 0.6 -0.1 1 -0.9 1 -0.8 0 -1.8 -0.4 -2.1 -1 -0.9 -1.4 -4.8 -1.2 -6.4 0.3 -1.1 1 -1.4 1 -1.8 0 -0.6 -1.6 -13.3 -1.8 -13.3 -0.3 0 0.6 -1.2 1 -2.6 1 -1.4 0 -2.3 -0.4 -2 -0.9 0.3 -0.5 -1.7 -0.9 -4.4 -0.9 -4.9 -0.1 -5 0 -5.1 3.1 -0.2 2.7 -0.2 2.8 -0.6 0.7 -1.2 -6.4 -2.1 -3.3 -2 6.4 0.2 12 1.6 14.4 1.9 3.4 0.1 -5.3 0.4 -3.8 0.8 5.2 l0.5 12.5 18 -0.2 c9.9 -0.2 18.8 0 19.8 0.3 1.1 0.4 1.7 1.3 1.5 2.7 -0.2 1.6 0.2 2.1 1.5 1.9 1.3 -0.2 1.7 0.4 1.7 2.7 0 1.6 -0.4 3.2 -0.9 3.6 -0.6 0.3 -0.8 -0.6 -0.5 -2.2 0.3 -1.5 0.2 -2.5 -0.1 -2.1 -0.6 0.5 -1.2 2.8 -1.4 5.1 -0.1 0.4 -2.3 0.7 -5.1 0.7 -4.3 0 -4.9 -0.2 -4.3 -1.7 0.6 -1.7 0.5 -1.7 -1.3 -0.1 -1.9 1.7 -2.1 1.7 -3.8 0 -1.1 -1 -1.6 -1.1 -1.1 -0.3 0.6 1.1 0.4 1.3 -1 0.7 -1.1 -0.4 -2.2 -0.2 -2.7 0.6 -0.6 1 -1 1 -1.8 -0.2 -0.5 -0.8 -1 -1 -1 -0.5 0 0.6 -0.5 0.3 -1 -0.5 -0.8 -1.3 -1 -1.2 -1 0.3 0 1 -0.5 1.5 -1 1.2 -0.6 -0.4 -0.7 -1.2 -0.3 -1.8 0.3 -0.7 -0.3 -0.4 -1.4 0.6 -1.5 1.3 -2.3 1.5 -2.8 0.7 -0.4 -0.6 -1.3 -0.9 -2 -0.6 -0.7 0.2 -2.1 -0.2 -3.2 -0.9 -2 -1.6 -4.4 -2 -4.2 -0.7 0.1 0.4 -0.2 1.7 -0.6 3 -0.5 1.5 -1.1 1.9 -1.9 1.3 -1.6 -1.3 -1.3 25.4 0.3 27.3 0.6 0.7 0.9 1.5 0.7 1.7 -0.2 0.2 4.8 0.4 11.2 0.5 6.5 0 12.7 0.3 14 0.7 1.3 0.3 2 0.2 1.7 -0.4 -0.4 -0.5 0.8 -0.9 2.4 -0.9 1.7 0 3.1 0.5 3.1 1 0 0.6 1 1 2.3 1 1.8 0 1.9 -0.2 0.7 -1 -1.1 -0.7 -0.7 -1 1.8 -1 1.7 0 3.2 0.5 3.2 1 0 0.6 1 1 2.3 0.9 2.1 0 2.1 -0.1 0.2 -0.9 -1.9 -0.8 -1.9 -0.9 0.1 -0.9 2.3 -0.1 3.4 2.2 3.4 6.9 0 4.9 -0.5 5 -29.4 4.8 -17.3 -0.1 -24 -0.4 -18.6 -0.8z m14.8 -0.7 c-1 -0.2 -2.8 -0.2 -4 0 -1.3 0.2 -0.5 0.4 1.7 0.4 2.2 0.1 3.2 -0.1 2.3 -0.4z m8 0 c-1 -0.2 -2.8 -0.2 -4 0 -1.3 0.2 -0.5 0.4 1.7 0.4 2.2 0.1 3.2 -0.1 2.3 -0.4z m9 0 c-1 -0.2 -2.8 -0.2 -4 0 -1.3 0.2 -0.5 0.4 1.7 0.4 2.2 0.1 3.2 -0.1 2.3 -0.4z m12.5 0 c-1.3 -0.2 -3.3 -0.2 -4.5 0 -1.3 0.2 -0.3 0.4 2.2 0.4 2.5 0 3.5 -0.2 2.3 -0.4z m-43.5 -57.8 c-0.2 -5.4 -0.9 -5.2 -1.5 0.5 -0.3 2.5 -0.1 4 0.6 4 0.7 0 1 -1.8 0.9 -4.5z"/>
  <path d="M667.3 565.3 c-2.3 -0.3 -3.3 -1 -3.7 -2.9 -0.4 -1.4 -0.4 -3 0 -3.6 0.4 -0.7 0.3 -0.8 -0.4 -0.4 -0.7 0.4 -1.2 0.2 -1.2 -0.3 0 -0.6 0.4 -1.1 1 -1.1 0.5 0 0.7 -0.7 0.3 -1.6 -0.4 -1.1 -0.8 -1.2 -1.3 -0.4 -0.8 1.2 -9.1 -20.8 -9.3 -24.7 -0.1 -1.3 -0.5 -2.3 -0.9 -2.3 -0.3 0 -1.6 -3 -2.9 -6.7 -1.2 -3.8 -2.4 -7.4 -2.7 -8.2 -0.3 -0.9 -0.1 -1.2 0.6 -0.7 0.7 0.4 1.2 0.1 1.2 -0.8 0 -1.8 -2 -3.2 -2.1 -1.4 0 0.7 -0.5 0.2 -1 -1.1 -0.6 -1.6 -0.6 -2.8 0.1 -3.6 0.8 -1 0.6 -1.5 -0.9 -2 -1.2 -0.3 -2.1 -1 -2.1 -1.5 0 -0.5 -0.3 -1.6 -0.7 -2.6 -0.4 -1.2 -0.3 -1.5 0.5 -1 0.7 0.4 1.2 0.2 1.2 -0.3 0 -0.6 -0.6 -1.1 -1.3 -1.1 -1.4 0 -6.3 -13.5 -6 -16.3 0.2 -1.2 -0.1 -1.6 -0.9 -1.1 -0.8 0.5 -0.9 0 -0.6 -1.4 0.4 -1.4 0.2 -2 -0.5 -1.5 -0.6 0.4 -0.8 -0.2 -0.5 -1.5 0.4 -1.2 0.2 -2 -0.3 -1.6 -0.5 0.3 -0.9 0 -0.9 -0.5 0 -0.6 1.6 -1.1 3.6 -1.1 2.1 0 3.3 -0.4 2.9 -1 -0.3 -0.5 0.1 -1 1 -1 1 0 1.3 0.5 0.9 1.2 -0.5 0.8 0 0.9 1.4 0.6 1.2 -0.4 2.2 -0.5 2.2 -0.3 0 0.2 2.7 8.2 6.1 17.9 5.4 15.8 6.4 19.3 6.8 24.5 0 0.8 0.4 1.1 0.8 0.7 1.1 -1.1 4.2 8.9 3.6 11.6 -0.3 1.7 -0.2 1.9 0.5 0.9 0.7 -1 1.2 -0.5 2.2 2.3 0.6 1.9 0.8 4.1 0.4 4.7 -0.4 0.7 0 1.7 0.8 2.3 1.6 1.2 4.1 7.6 3.3 8.4 -0.2 0.3 -0.9 -0.6 -1.4 -1.9 -1.1 -2.7 -1.4 -0.6 -0.5 2.9 0.5 1.7 1 2 1.9 1.2 0.9 -0.8 1.4 -0.5 1.8 1.2 0.8 3 1.9 1.6 4.2 -5.4 1 -3.1 2.2 -5.5 2.6 -5.2 0.4 0.2 0.5 -0.6 0.1 -1.8 -0.4 -1.6 -0.2 -1.9 0.8 -1.3 0.9 0.5 1.1 0.4 0.6 -0.3 -1.1 -1.8 3.6 -15.5 4.7 -13.9 0.6 0.8 0.7 0.6 0.3 -0.7 -1 -3.1 1.2 -8.6 3.2 -8 1.3 0.5 1.4 0.4 0.4 -0.4 -1.1 -0.7 -1 -2.3 0.8 -8.3 1.7 -5.5 2.4 -6.9 3 -5.5 0.5 1.6 0.7 1.7 1.2 0.4 0.4 -0.9 0.2 -2 -0.3 -2.5 -1 -1 0.7 -8.3 1.9 -8.2 1.8 0.3 2.6 -0.2 1.5 -0.9 -0.9 -0.6 -0.7 -2.4 0.8 -7.5 2 -6.4 2.2 -6.7 5.3 -6.8 2.6 0 2.8 -0.2 1.1 -0.9 -1.8 -0.8 -1.7 -0.9 0.8 -0.9 1.6 -0.1 2.6 0.3 2.2 0.9 -0.3 0.6 0.4 1 1.5 1 1.6 0 2 0.4 1.6 1.6 -0.3 0.8 -0.2 1.2 0.4 0.9 1.5 -1 1.2 0.7 -1.6 8.1 -1.5 3.8 -3.1 8.4 -3.6 10.2 -0.5 1.7 -1.5 3.2 -2.3 3.2 -0.8 0 -1.5 0.4 -1.5 0.9 0 0.5 -0.3 1.8 -0.6 2.8 -0.3 1.1 0.1 0.8 1.1 -0.7 2.1 -3.1 1.9 -2.5 -4 14.2 -2.6 7.6 -5.1 13.5 -5.6 13.2 -0.5 -0.3 -0.8 0.3 -0.7 1.3 0.3 3.7 -0.2 5.4 -1.4 4.7 -0.7 -0.4 -0.8 -0.3 -0.4 0.5 1 1.6 -2.3 11.3 -3.6 10.5 -0.6 -0.4 -0.8 0.2 -0.3 1.6 0.5 1.7 0.4 2.1 -0.6 1.5 -0.9 -0.6 -1.1 -0.3 -0.6 0.8 0.4 1 -0.5 5 -1.9 9 -1.4 3.9 -2.8 7.9 -3 8.7 -0.5 1.2 -0.8 1.1 -2.1 -0.5 -1.3 -1.6 -1.5 -1.7 -1 -0.2 0.7 1.8 -0.4 1.9 -8 1z m-17.2 -72.7 c-1.1 -2.7 -2.1 -3.6 -1.7 -1.3 0.5 2.1 1.8 4.8 2.3 4.4 0.2 -0.2 -0.1 -1.6 -0.6 -3.1z"/>
  <path d="M570.4 538.5 c0 -6.6 0.1 -9.2 0.3 -5.7 0.2 3.4 0.2 8.8 0 12 -0.2 3.1 -0.3 0.3 -0.3 -6.3z"/>
  <path d="M407.5 523.4 c-1.2 -1.3 -1.5 -2.6 -0.9 -5.8 0.3 -2.2 0.8 -4.5 1.1 -4.9 0.3 -0.4 8.3 -0.7 17.9 -0.7 18.1 0.2 18.2 0.2 17.5 4.3 -0.1 0.5 0.3 0.6 0.8 0.2 0.6 -0.3 0.8 -1.3 0.5 -2.3 -0.5 -1.4 -0.4 -1.5 0.5 -0.2 0.6 0.8 1.1 3.2 1.1 5.4 0 3 -0.3 3.7 -1.5 3.2 -0.8 -0.3 -1.4 0 -1.2 0.7 0.1 0.9 -4.2 1.3 -17 1.5 -14.8 0.2 -17.3 0 -18.8 -1.4z"/>
  <path d="M326.5 394 c-2.8 -0.7 -2.8 -0.8 -0.5 -0.9 1.4 0 3.2 0.4 4 0.9 1.7 1.1 0.8 1.1 -3.5 0z"/>
  <path d="M320.3 331.3 c0.9 -0.2 2.5 -0.2 3.5 0 0.9 0.3 0.1 0.5 -1.8 0.5 -1.9 0 -2.7 -0.2 -1.7 -0.5z"/>
 </g>
</svg>